<svg width="929" height="293" viewBox="0 0 929 293" fill="none" xmlns="http://www.w3.org/2000/svg">
<g opacity="0.1">
<path d="M182.987 266.557C193.084 265.772 231.503 263.611 246.891 262.404" stroke="black" stroke-linecap="round" stroke-linejoin="round"/>
<path d="M184.626 265.219L241.975 261.269" stroke="black" stroke-linecap="round" stroke-linejoin="round"/>
<path d="M193.171 249.922C193.171 249.922 193.662 249.267 197.923 248.12C202.183 246.809 209.065 248.775 209.065 248.775L249.701 260.736C249.701 260.736 234.134 257.132 227.089 257.951C220.043 258.934 212.669 263.194 212.669 263.194M193.171 249.922L212.669 263.194M193.171 249.922C193.171 249.922 188.112 248.17 179.874 248.178M212.669 263.194C212.669 263.194 192.982 259.983 187.903 260.802C182.987 261.622 179.874 268.012 179.874 268.012L167.421 258.722" stroke="black" stroke-linecap="round" stroke-linejoin="round"/>
<path d="M83.4731 200.762C82.9531 199.028 82.7798 197.122 82.7798 195.216V187.936C82.7798 187.218 82.8157 186.508 82.8856 185.809M83.4731 200.762C84.8197 205.667 87.9279 209.879 92.0866 212.656M83.4731 200.762H299.428M94.5653 114.624H84.8596C81.9133 114.624 79.6602 117.05 79.6602 119.823V181.004C79.6602 183.217 81.0291 185.039 82.8856 185.809M94.5653 114.624H104.618C107.391 114.624 109.817 116.877 109.817 119.823V166.965M94.5653 114.624V63.3227C94.5653 53.7904 102.191 46.1646 111.723 46.1646H271.177C280.71 46.1646 288.336 53.7904 288.336 63.3227V114.624M92.0866 212.656L95.4318 236.984C95.7785 239.584 98.0316 241.491 100.631 241.491H101.671C104.444 241.491 106.697 239.238 106.871 236.465L107.775 216.187M92.0866 212.656C95.4214 214.882 99.4317 216.187 103.751 216.187H107.775M107.775 216.187H275.126M109.817 166.965V181.004C109.644 183.95 107.391 186.203 104.444 186.203H95.2015H84.8596C84.1695 186.203 83.5008 186.064 82.8856 185.809M109.817 166.965H273.084M299.428 200.762C299.948 199.028 300.121 197.122 300.121 195.216V187.936C300.121 187.218 300.085 186.508 300.015 185.809M299.428 200.762C298.081 205.667 294.973 209.879 290.814 212.656M288.336 114.624H298.041C300.988 114.624 303.241 117.05 303.241 119.823V181.004C303.241 183.217 301.872 185.039 300.015 185.809M288.336 114.624H278.283C275.51 114.624 273.084 116.877 273.084 119.823V166.965M290.814 212.656L287.469 236.984C287.122 239.584 284.869 241.491 282.27 241.491H281.23C278.457 241.491 276.204 239.238 276.03 236.465L275.126 216.187M290.814 212.656C287.48 214.882 283.469 216.187 279.15 216.187H275.126M273.084 166.965V181.004C273.257 183.95 275.51 186.203 278.457 186.203H287.699H298.041C298.731 186.203 299.4 186.064 300.015 185.809" stroke="black" stroke-linecap="round" stroke-linejoin="round"/>
<path d="M78.1211 263.796C95.803 264.027 143.848 263.519 153.494 263.633" stroke="black" stroke-linecap="round" stroke-linejoin="round"/>
<path d="M81.3965 262.046H151.854" stroke="black" stroke-linecap="round" stroke-linejoin="round"/>
<path d="M139.427 245.17C139.427 245.17 138.935 244.514 133.856 243.367C128.776 242.22 121.239 245.006 121.239 245.006L75.5234 262.047C75.5234 262.047 93.0559 256.639 101.249 257.131C109.441 257.623 118.289 262.047 118.289 262.047M139.427 245.17L118.289 262.047M139.427 245.17C139.427 245.17 148.439 241.893 160.728 241.893C171.214 241.893 179.571 245.497 179.571 245.497L157.123 264.832C157.123 264.832 153.19 257.786 147.292 257.131C141.557 256.639 118.289 262.047 118.289 262.047" stroke="black" stroke-linecap="round" stroke-linejoin="round"/>
<path d="M873.373 80.992C860.06 107.619 838.553 123.663 824.557 116.836C810.902 110.008 810.561 83.0402 823.874 56.4134C836.846 29.7866 858.694 13.7422 872.349 20.5696C886.004 27.0556 886.345 54.3652 873.373 80.992Z" stroke="black"/>
<path d="M756.5 136.788C760.508 135.242 763.615 132.805 765.499 129.466C773.009 116.153 752.53 91.2196 732.386 78.9436C715.48 68.641 692.258 68.3728 682.5 69.9156" stroke="black"/>
<path d="M885.649 153.946C909.287 136.13 920.999 111.8 911.807 99.6049C902.615 87.4094 876.001 91.9657 852.363 109.782C828.725 127.598 817.013 151.927 826.205 164.123C835.397 176.318 862.011 171.762 885.649 153.946Z" stroke="black"/>
<path d="M787.686 189.547C785.148 186.522 782.675 183.823 780.211 181.416" stroke="black" stroke-linecap="round" stroke-linejoin="round"/>
<path d="M792.807 189.547C782.438 154.515 768.534 135.756 727.947 104.205" stroke="black" stroke-linecap="round" stroke-linejoin="round"/>
<path d="M797.927 189.547C806.608 137.039 821.193 108.016 850.839 56.4131" stroke="black" stroke-linecap="round" stroke-linejoin="round"/>
<path d="M881.563 119.566C841.094 138.879 821.573 152.296 803.048 189.547" stroke="black" stroke-linecap="round" stroke-linejoin="round"/>
<path d="M805.779 190.912H845.719C849.474 190.912 852.546 193.984 852.205 197.398L842.988 286.495C842.305 289.568 839.574 291.957 836.16 291.957H805.608" stroke="black"/>
<path d="M754.915 286.495C755.256 289.568 757.987 291.957 761.401 291.957H822.506C825.919 291.957 828.65 289.568 829.333 286.495L838.55 197.398C838.891 193.984 835.819 190.912 832.064 190.912H783" stroke="black"/>
<path d="M390.613 196.916H413.307M481.387 196.916H458.693M413.307 196.916H436H458.693M413.307 196.916L371 259.916M458.693 196.916L501 259.916" stroke="black" stroke-linecap="round" stroke-linejoin="round"/>
<path d="M61.7426 183.432H2.55273V243.617H61.7426V183.432Z" stroke="black" stroke-miterlimit="10"/>
<path d="M54.1002 189.104H10.1709V215.342H54.1002V189.104Z" stroke="black" stroke-miterlimit="10"/>
<path d="M46.6186 210.409H17.6025V215.342H46.6186V210.409Z" stroke="black" stroke-miterlimit="10"/>
<path d="M42.9604 203.253H13.9443V210.432H42.9604V203.253Z" stroke="black" stroke-miterlimit="10"/>
<path d="M49.3305 196.075H20.3145V203.254H49.3305V196.075Z" stroke="black" stroke-miterlimit="10"/>
<path d="M22.9658 202.754V196.576H23.9573V202.754H22.9658Z" stroke="black"/>
<path d="M16.1357 209.932V203.753H17.1273V209.932H16.1357Z" stroke="black"/>
<path d="M21.3945 214.841V210.909H22.3861V214.841H21.3945Z" stroke="black"/>
<path d="M42.4844 214.843V210.91H43.4759V214.843H42.4844Z" stroke="black"/>
<path d="M38.9258 209.933V203.754H39.9173V209.933H38.9258Z" stroke="black"/>
<path d="M46.1494 202.754V196.575H47.1409V202.754H46.1494Z" stroke="black"/>
<path d="M63.5245 179.471H1V183.408H63.5245V179.471Z" stroke="black" stroke-miterlimit="10"/>
<path d="M56.7694 152.172C57.2292 144.778 59.4337 120.386 66.7664 132.601C66.7664 132.601 65.8401 119.702 60.8381 122.203C59.295 122.975 57.8379 125.073 56.5449 127.62" stroke="black"/>
<path d="M53.2802 152.047C53.2802 152.047 54.6697 115.852 60.9453 102.49C60.9453 102.49 51.0099 111.381 47.2852 126.754" stroke="black"/>
<path d="M52.126 151.884C52.1592 151.393 52.1851 150.885 52.1994 150.363C52.2457 148.927 52.1067 147.491 51.852 145.847C51.5973 144.296 51.412 142.652 51.111 141.193C45.5995 115.164 28.9727 105.229 28.9727 105.229C32.5358 111.206 35.0239 120.122 36.7416 128.92" stroke="black"/>
<path d="M33.4956 152.438C32.6992 146.054 31.259 136.443 29.737 135.751C27.4445 134.732 22.2109 150.41 22.2109 150.41C22.2109 150.41 23.1372 127.762 27.7687 124.103C29.8528 122.459 32.5391 124.752 34.8316 127.785C38.0042 131.977 39.9957 136.956 40.6441 142.189L41.8169 151.745" stroke="black"/>
<mask id="path-34-inside-1_283_1379" fill="white">
<path d="M41.2683 117.618C44.7419 122.528 47.4513 127.923 49.327 133.643C51.2152 139.42 52.228 145.529 52.3655 151.884H52.0852C51.7266 136.224 46.0053 124.823 41.0367 117.804C35.1407 109.48 28.9908 105.381 28.9027 105.322L28.9023 105.322L29.0644 105.09C29.1107 105.113 35.34 109.259 41.2683 117.618Z"/>
</mask>
<path d="M49.327 133.643L50.2775 133.333L50.2772 133.332L49.327 133.643ZM41.2683 117.618L42.0846 117.041L42.084 117.04L41.2683 117.618ZM29.0644 105.09L29.5116 104.196L28.7399 103.81L28.2452 104.517L29.0644 105.09ZM28.9023 105.322L28.0831 104.748L27.4964 105.587L28.3477 106.154L28.9023 105.322ZM28.9027 105.322L28.3481 106.154L28.3481 106.154L28.9027 105.322ZM41.0367 117.804L41.8529 117.226L41.8527 117.226L41.0367 117.804ZM52.0852 151.884L51.0855 151.907L51.1079 152.884H52.0852V151.884ZM52.3655 151.884V152.884H53.3874L53.3653 151.862L52.3655 151.884ZM50.2772 133.332C48.3706 127.518 45.6163 122.032 42.0846 117.041L40.452 118.196C43.8675 123.023 46.532 128.329 48.3768 133.955L50.2772 133.332ZM42.084 117.04C39.0701 112.79 35.979 109.61 33.6314 107.487C32.4573 106.424 31.4677 105.625 30.7647 105.088C30.4132 104.819 30.1329 104.615 29.9367 104.476C29.8386 104.407 29.761 104.353 29.7055 104.316C29.678 104.297 29.6549 104.281 29.6368 104.269C29.628 104.264 29.6185 104.258 29.6094 104.252C29.6051 104.249 29.5982 104.245 29.5901 104.24C29.5862 104.237 29.5793 104.233 29.5707 104.228C29.5671 104.226 29.5431 104.212 29.5116 104.196L28.6172 105.985C28.5862 105.969 28.5627 105.955 28.5599 105.954C28.552 105.949 28.546 105.945 28.5432 105.944C28.5373 105.94 28.5333 105.938 28.5328 105.937C28.5311 105.936 28.5321 105.937 28.5366 105.94C28.5452 105.945 28.5604 105.955 28.5824 105.97C28.6262 106 28.693 106.046 28.7813 106.109C28.9577 106.234 29.218 106.423 29.5497 106.676C30.2129 107.184 31.1599 107.948 32.2898 108.97C34.5505 111.015 37.5382 114.087 40.4526 118.197L42.084 117.04ZM28.2452 104.517L28.0831 104.748L29.7216 105.895L29.8837 105.664L28.2452 104.517ZM28.3477 106.154L28.3481 106.154L29.4573 104.49L29.457 104.49L28.3477 106.154ZM28.3481 106.154C28.3769 106.173 34.4201 110.193 40.2207 118.382L41.8527 117.226C35.8613 108.767 29.6047 104.588 29.4573 104.49L28.3481 106.154ZM40.2205 118.381C45.1027 125.279 50.7325 136.491 51.0855 151.907L53.085 151.861C52.7208 135.958 46.9078 124.367 41.8529 117.226L40.2205 118.381ZM53.3653 151.862C53.2258 145.414 52.1978 139.208 50.2775 133.333L48.3765 133.954C50.2325 139.632 51.2303 145.643 51.3657 151.906L53.3653 151.862ZM52.0852 152.884H52.3655V150.884H52.0852V152.884Z" fill="black" mask="url(#path-34-inside-1_283_1379)"/>
<mask id="path-36-inside-2_283_1379" fill="white">
<path d="M61.2774 105.923C58.0354 112.801 56.1365 125.885 55.0944 135.657C54.3816 142.32 53.9795 148.379 53.779 151.987H53.5059C53.7107 148.382 54.1168 142.311 54.8165 135.634C55.8354 125.839 57.7575 112.708 61.0227 105.808L61.2774 105.923Z"/>
</mask>
<path d="M55.0944 135.657L56.0888 135.764L56.0888 135.763L55.0944 135.657ZM61.2774 105.923L62.1819 106.35L62.6143 105.433L61.6912 105.013L61.2774 105.923ZM61.0227 105.808L61.4365 104.897L60.5399 104.49L60.1187 105.38L61.0227 105.808ZM54.8165 135.634L55.8111 135.738L55.8112 135.738L54.8165 135.634ZM53.5059 151.987L52.5075 151.931L52.4474 152.987H53.5059V151.987ZM53.779 151.987V152.987H54.725L54.7775 152.043L53.779 151.987ZM56.0888 135.763C56.6084 130.891 57.3402 125.206 58.3436 119.89C59.3507 114.555 60.6176 109.668 62.1819 106.35L60.3729 105.497C58.6951 109.056 57.3916 114.151 56.3783 119.519C55.3612 124.908 54.6226 130.651 54.1001 135.551L56.0888 135.763ZM61.6912 105.013L61.4365 104.897L60.6089 106.718L60.8636 106.834L61.6912 105.013ZM60.1187 105.38C58.4292 108.951 57.114 114.063 56.0947 119.449C55.0716 124.856 54.333 130.617 53.8219 135.531L55.8112 135.738C56.319 130.855 57.0508 125.154 58.0598 119.821C59.0726 114.469 60.351 109.565 61.9266 106.235L60.1187 105.38ZM53.822 135.53C53.12 142.228 52.7129 148.316 52.5075 151.931L54.5042 152.044C54.7085 148.449 55.1135 142.394 55.8111 135.738L53.822 135.53ZM54.7775 152.043C54.9774 148.445 55.3783 142.404 56.0888 135.764L54.1001 135.551C53.3849 142.236 52.9816 148.313 52.7806 151.932L54.7775 152.043ZM53.5059 152.987H53.779V150.987H53.5059V152.987Z" fill="black" mask="url(#path-36-inside-2_283_1379)"/>
<path d="M59.6111 153.281C59.6111 153.281 59.1248 180.074 51.9461 179.448H46.2957H45.3926H39.7422C32.5634 180.074 32.0771 153.281 32.0771 153.281C38.8622 152.262 52.8029 152.262 59.6111 153.281Z" stroke="black" stroke-miterlimit="10"/>
<path d="M21.2387 175.535C25.1291 175.535 28.3249 172.362 28.3249 168.472C28.3249 164.581 25.1523 161.409 21.2387 161.409M21.2387 175.535V161.409M21.2387 175.535C21.2387 176.252 21.2387 176.97 21.2387 177.688H8.84992L8.84961 159.186H21.2387V161.409" stroke="black"/>
<path d="M3.42985 179.455H29.8291V177.695H3.42985V179.455Z" stroke="black" stroke-miterlimit="10"/>
<path d="M371.289 86.5267V52.5254" stroke="black" stroke-linecap="round" stroke-linejoin="round"/>
<path d="M351.473 236.444V52.2651" stroke="black" stroke-linecap="round" stroke-linejoin="round"/>
<path d="M373.549 1.16309H351.797H330.016L316.425 52.3873H351.797H387.141L373.549 1.16309Z" stroke="black" stroke-miterlimit="10" stroke-linecap="round" stroke-linejoin="round"/>
<path d="M351.767 236.765H334.037C331.63 236.765 329.663 238.731 329.663 241.139H351.767H373.871C373.871 238.731 371.905 236.765 369.498 236.765H351.767Z" stroke="black" stroke-miterlimit="10" stroke-linecap="round" stroke-linejoin="round"/>
<path d="M371.434 96.0374H371.288C370.642 96.0374 370.084 95.509 370.084 94.8339V86.7026C370.084 86.0568 370.612 85.499 371.288 85.499H371.434C372.08 85.499 372.638 86.0274 372.638 86.7026V94.8339C372.638 95.509 372.109 96.0374 371.434 96.0374Z" fill="black" stroke="black" stroke-linecap="round" stroke-linejoin="round"/>
<path d="M336.212 1.10449L326.172 52.3287" stroke="black" stroke-linecap="round" stroke-linejoin="round"/>
<path d="M345.984 1.16309L345.279 52.3873" stroke="black" stroke-linecap="round" stroke-linejoin="round"/>
<path d="M360.751 52.358L358.755 1.16309" stroke="black" stroke-linecap="round" stroke-linejoin="round"/>
<path d="M377.219 52.0934L366.71 1.104" stroke="black" stroke-linecap="round" stroke-linejoin="round"/>
<path d="M536.65 1.99756H462.768V99.8979H536.65V1.99756Z" stroke="black" stroke-miterlimit="10"/>
<path d="M529.9 9.30762H469.519V92.5882H529.9V9.30762Z" stroke="black" stroke-miterlimit="10"/>
<path d="M486.038 55.6662C481.301 50.333 478.318 44.03 477.646 37.839C476.975 31.5734 478.728 26.2029 482.644 22.7344C486.56 19.2659 492.08 18.1098 498.233 19.527C504.275 20.9069 510.243 24.5992 514.979 29.8951C524.825 40.9345 526.354 55.7408 518.373 62.8269C515.501 65.4003 511.772 66.5937 507.744 66.5937C500.546 66.5937 492.341 62.7523 486.038 55.6662Z" stroke="black" stroke-miterlimit="10"/>
<path d="M509.274 20.0102C504.09 24.7467 498.868 31.9447 494.542 40.2243C485.89 56.858 483.503 73.4917 489.321 76.5127C489.955 76.8483 490.663 76.9975 491.447 76.9975C497.787 76.9975 508.341 66.2564 516.062 51.4129C520.388 43.096 523.26 34.7046 524.192 27.7303C525.05 21.129 524.005 16.5417 521.283 15.1245C520.686 14.7888 519.978 14.6396 519.232 14.6396C516.584 14.6769 513.078 16.5417 509.274 20.0102Z" stroke="black" stroke-miterlimit="10"/>
<path d="M446.454 66.9976H397V141.141H446.454V66.9976Z" stroke="black" stroke-miterlimit="10"/>
<path d="M401.56 135.611H441.988V72.5444H401.56V135.611Z" stroke="black" stroke-miterlimit="10"/>
<path d="M418.07 104.405V78.5223L434.965 76.0981V106.83L418.07 104.405Z" stroke="black" stroke-miterlimit="10"/>
<path d="M415.76 125.962C412.366 123.202 409.494 118.95 407.629 113.99C405.765 109.03 405.131 103.92 405.839 99.6314C406.585 95.1932 408.674 92.0977 411.732 90.9416C414.79 89.7854 418.408 90.7178 421.914 93.5522C425.307 96.3121 428.179 100.564 430.044 105.524C431.909 110.484 432.543 115.594 431.834 119.883C431.088 124.321 429 127.416 425.941 128.573C425.084 128.908 424.189 129.057 423.256 129.057C420.869 129.057 418.296 128.013 415.76 125.962Z" stroke="black" stroke-miterlimit="10"/>
</g>
</svg>
