<svg width="481" height="461" viewBox="0 0 481 461" fill="none" xmlns="http://www.w3.org/2000/svg">
<path d="M215.56 422.566C276.076 404.924 320.269 357.664 321.866 298.926C323.484 242.368 298.874 224.698 279.352 220.008M59.1211 381.609C56.0213 371.816 55.4797 361.185 56.5867 350.457" stroke="black" stroke-miterlimit="10" stroke-linecap="round" stroke-linejoin="round"/>
<path d="M248.658 380.96C277.993 363.437 289.675 337.087 289.675 336.828" stroke="black" stroke-miterlimit="10" stroke-linecap="round" stroke-linejoin="round"/>
<path d="M256.827 323.515C267.337 324.13 274.024 325.733 274.229 328.132C274.619 332.805 251.644 338.516 222.828 341.112C205.95 342.556 190.854 342.576 181.164 341.431" stroke="black" stroke-linecap="round" stroke-linejoin="round"/>
<path d="M108.475 378.234H65.3806C65.3806 378.234 46.6012 299.253 55.3895 266.087" stroke="black" stroke-miterlimit="10" stroke-linecap="round" stroke-linejoin="round"/>
<path d="M264.338 291.398C265.284 304.452 263.183 319.287 250.215 324.108C225.553 333.323 174.282 333.583 174.282 333.583L197.387 374.34L123.011 396.406C123.011 396.406 73.1474 306.421 90.3033 266.578" stroke="black" stroke-miterlimit="10" stroke-linecap="round" stroke-linejoin="round"/>
<path d="M116.428 419.899L116.984 393.939M94.1972 439.958C64.6112 440.203 13.044 439.847 2.8929 439.772C1.87356 439.764 1.05747 438.991 1.02337 437.972C0.890795 434.011 1.15673 424.444 6.32168 419.38C12.9415 412.89 47.3385 401.338 50.5835 399.78C53.9583 398.223 68.1065 381.479 68.1065 381.479L110.422 384.725" stroke="black" stroke-miterlimit="10" stroke-linecap="round" stroke-linejoin="round"/>
<path d="M140.307 393.651C139.966 393.749 139.702 394.021 139.612 394.364C138.697 397.834 133.608 416.484 129.372 418.602C124.699 420.938 104.71 433.529 93.8068 444.951C88.9568 450.078 89.2845 454.022 90.6443 456.585C92.0884 459.306 95.4344 460.008 98.5155 460.008H148.244C153.776 460.008 159.165 458.243 163.626 454.97L205.592 424.174C208.669 421.916 209.723 417.798 208.107 414.339L191.908 379.657C191.7 379.211 191.198 378.983 190.725 379.12L140.307 393.651Z" stroke="black" stroke-miterlimit="10" stroke-linecap="round" stroke-linejoin="round"/>
<path d="M56.6839 392.901C56.6839 392.901 72.3897 410.944 68.8851 412.501C65.2507 413.929 34.8775 409.256 35.6563 406.011C36.3053 402.766 53.0495 392.642 56.6839 392.901Z" fill="#0EB80E"/>
<path d="M133.916 407.31C133.916 407.31 154.164 420.16 151.049 422.626C148.064 425.092 117.431 429.116 117.301 425.741C117.171 422.496 130.281 408.088 133.916 407.31Z" fill="#0EB80E"/>
<path d="M188.822 144.854L190.379 154.978C190.379 154.978 187.783 160.17 177.269 162.896C169.481 164.843 166.366 163.805 166.366 163.805L166.236 155.498V152.642" stroke="black" stroke-miterlimit="10" stroke-linecap="round" stroke-linejoin="round"/>
<path d="M153.386 117.077C152.347 125.254 151.958 136.417 155.333 143.426C161.304 155.497 172.466 151.344 178.956 147.58C181.942 145.892 184.019 143.945 185.446 142.258" stroke="black" stroke-miterlimit="10" stroke-linecap="round" stroke-linejoin="round"/>
<path d="M146.896 180.03C143.219 195.543 142.207 207.958 146.768 220.657" stroke="black" stroke-miterlimit="10" stroke-linecap="round" stroke-linejoin="round"/>
<path d="M172.726 116.168C170.13 114.221 167.534 114.221 164.289 115.519" stroke="black" stroke-linecap="round" stroke-linejoin="round"/>
<path d="M161.693 124.86C160.281 128.659 159.526 130.904 161.693 134.989" stroke="black" stroke-linecap="round" stroke-linejoin="round"/>
<path d="M174.024 134.34C172.726 140.181 168.832 142.128 165.587 138.883L174.024 134.34Z" stroke="black" stroke-linecap="round" stroke-linejoin="round"/>
<path d="M158.448 115.519C156.181 114.832 155.373 115.13 154.555 116.424" stroke="black" stroke-linecap="round" stroke-linejoin="round"/>
<path d="M166.885 118.115L170.13 120.062V125.254" stroke="black" stroke-linecap="round" stroke-linejoin="round"/>
<path d="M193.494 123.307L189.9 128.499M187.653 131.744L189.9 128.499M189.9 128.499H194.792" stroke="black" stroke-linecap="round" stroke-linejoin="round"/>
<path d="M153.256 119.413L156.501 121.36V126.552" stroke="black" stroke-linecap="round" stroke-linejoin="round"/>
<path d="M183.11 228.445C170.454 223.954 152.806 223.716 141.054 228.445C130.41 232.599 131.838 237.401 131.838 237.401M131.838 237.401C131.838 237.401 124.959 241.036 127.555 244.021C130.021 247.007 141.054 243.372 141.054 243.372M131.838 237.401C139.621 233.049 144.17 231.69 153.256 231.69M141.054 243.372C141.054 243.372 127.035 249.083 132.357 252.588C137.679 256.093 155.332 250.381 155.332 250.381C155.332 250.381 166.885 253.756 176.62 252.588M141.054 243.372C146.759 242.047 149.389 241.631 155.203 241.425" stroke="black" stroke-linecap="round" stroke-linejoin="round"/>
<mask id="mask0_283_1603" style="mask-type:alpha" maskUnits="userSpaceOnUse" x="115" y="159" width="160" height="136">
<path d="M265.791 278.028C236.716 320.862 167.273 266.216 167.273 266.216L179.864 220.656C189.248 200.74 190.973 187.134 188.95 159.349C205.117 160.906 218.025 164.842 218.025 164.842C240.74 170.813 294.866 235.194 265.791 278.028Z" fill="#0EB80E"/>
<path d="M146.505 164.453C129.738 172.517 120.485 204.501 115.846 227.925L151.957 218.06C151.301 195.324 153.051 182.743 158.447 160.473C154.254 161.373 150.222 162.665 146.505 164.453Z" fill="#0EB80E"/>
</mask>
<g mask="url(#mask0_283_1603)">
<path d="M265.791 278.028C236.716 320.862 167.273 266.216 167.273 266.216L179.864 220.656C189.248 200.74 190.973 187.134 188.95 159.349C205.117 160.906 218.025 164.842 218.025 164.842C240.74 170.813 294.866 235.194 265.791 278.028Z" fill="#0EB80E"/>
<path d="M146.505 164.453C129.738 172.517 120.485 204.501 115.846 227.925L151.957 218.06C151.301 195.324 153.051 182.743 158.447 160.473C154.254 161.373 150.222 162.665 146.505 164.453Z" fill="#0EB80E"/>
</g>
<path d="M172.466 263.62C172.466 263.62 241.909 318.266 270.985 275.432C300.06 232.598 245.933 168.217 223.218 162.246C223.218 162.246 210.311 158.309 194.144 156.752C196.166 184.538 194.441 198.144 185.058 218.06M121.04 225.329C125.678 201.905 134.931 169.921 151.698 161.857C155.415 160.069 159.447 158.776 163.641 157.877C158.244 180.147 156.495 192.728 157.151 215.464" stroke="black" stroke-miterlimit="10" stroke-linecap="round" stroke-linejoin="round"/>
<path d="M163.38 316.579C162.731 316.579 162.082 316.709 161.433 317.098C160.395 317.618 159.875 318.396 159.875 319.305C159.875 323.329 168.961 330.078 174.283 333.453C172.985 329.04 169.481 318.916 164.938 316.839C164.418 316.709 163.899 316.579 163.38 316.579Z" stroke="black" stroke-miterlimit="10" stroke-linecap="round" stroke-linejoin="round"/>
<path d="M127.699 257.703H39.0459L16.4607 206.691C15.1627 203.836 17.2395 200.591 20.4845 200.591H102.388L127.699 257.703Z" fill="#0EB80E"/>
<mask id="mask1_283_1603" style="mask-type:alpha" maskUnits="userSpaceOnUse" x="49" y="216" width="34" height="28">
<path d="M49.6235 222.358L53.2697 242.578C53.2697 242.578 64.2945 243.136 68.9781 243.136C76.4241 243.136 82.4644 237.102 82.4644 229.65C82.4644 222.198 76.4241 216.17 68.9781 216.17C61.5321 216.17 49.6235 222.358 49.6235 222.358Z" fill="#24D124"/>
</mask>
<g mask="url(#mask1_283_1603)">
<path d="M73.5155 235.236C69.1818 235.236 67.2236 232.885 67.2236 232.204C67.2236 230.749 69.6606 229.435 69.6606 223.18C69.6606 219.233 68.8777 216.237 68.6567 216.237C68.2761 216.237 67.8374 216.593 67.8374 217.373C67.8374 218.005 67.9663 219.11 67.9663 219.515C67.9663 224.009 65.6153 224.328 64.8787 224.328C61.9138 224.328 59.0901 220.264 58.0834 220.264C57.7089 220.264 57.5002 220.442 57.5002 220.86C57.5002 221.676 59.6119 223.763 61.214 225.936C62.5092 227.704 62.3865 229.699 65.3636 229.699C66.8062 229.699 67.4875 229.49 67.4875 229.49C67.4875 229.49 67.2911 230.276 65.8486 230.276C63.9947 230.276 63.0801 229.846 63.0126 229.846C62.4233 229.846 62.2637 232.75 61.7051 234.45C60.6493 237.673 59.3847 240.785 59.3847 241.19C59.3847 241.467 59.6057 242.007 60.2441 242.007C61.791 242.007 63.6755 234.1 65.3636 234.1C67.2174 234.1 66.4747 243.026 67.9663 243.026C68.2242 243.026 68.4636 243.026 68.5556 243.026C68.5556 242.35 68.2733 239.582 68.2733 237.391C68.2733 236.298 68.4144 234.831 68.8626 234.831C69.1756 234.831 70.5997 234.935 70.5997 236.715C70.5997 237.765 69.7158 243.437 69.7158 243.437C69.7158 243.437 74.0066 243.02 74.0066 242.694C74.0066 242.369 72.0607 237.74 72.0607 236.292C72.0607 235.666 72.6316 235.635 72.9999 235.635C74.7494 235.635 74.1969 236.697 75.4921 241.749C78.7578 242.596 87.1 231.387 83.7913 228.533C82.2751 227.225 86.1424 226.231 80.8878 226.231C75.5289 226.231 75.087 228.164 75.087 229.975C75.087 231.89 75.4614 233.468 75.4614 234.119C75.4614 234.776 75.4307 235.236 73.5155 235.236Z" fill="white"/>
<path d="M73.3554 225.641C72.0356 225.641 72.0049 224.677 71.52 221.866C71.2008 219.987 69.7828 216.004 69.7828 215.654C69.7828 214.776 78.5055 217.839 78.5055 217.839L83.2751 225.095C83.2751 225.095 80.4207 225.039 77.7689 225.156C75.3626 225.156 74.5033 225.641 73.3554 225.641Z" fill="white"/>
<path d="M64.4796 218.889C63.5711 218.889 62.5766 219.503 62.5766 221.111C62.5766 222.72 63.7368 223.659 64.9154 223.659C66.094 223.659 66.8429 222.523 66.8429 221.418C66.8429 220.313 65.9098 218.889 64.4796 218.889Z" fill="white"/>
<path d="M76.5971 222.621C76.5971 222.621 76.2104 224.677 74.553 224.677C73.1902 224.677 72.7114 223.646 72.7114 222.737C72.7114 221.338 73.9575 220.485 73.9575 220.485C73.135 220.485 72.2817 221.995 72.2817 222.492C72.2756 222.516 71.8643 221.995 71.8643 220.19C73.3498 220.19 73.6383 219.545 75.1054 219.545C76.4927 219.545 77.26 220.564 77.26 222.621C77.26 223.407 77.3828 224.315 77.3828 224.315C77.3828 224.315 77.2785 224.677 75.9832 224.677C75.9894 224.683 76.5971 223.916 76.5971 222.621Z" fill="#0EB80E"/>
</g>
<path d="M124.699 255.703H36.0459L13.4607 204.691C12.1627 201.836 14.2395 198.591 17.4845 198.591H99.3882L124.699 255.703Z" stroke="black" stroke-linecap="round" stroke-linejoin="round"/>
<path d="M162.212 262.842H36.9552C35.0082 262.842 33.3208 261.284 33.3208 259.208C33.3208 257.261 34.8784 255.573 36.9552 255.573H162.082C164.029 255.573 165.717 257.131 165.717 259.208C165.717 261.284 164.159 262.842 162.212 262.842Z" stroke="black" stroke-linecap="round" stroke-linejoin="round"/>
<path d="M350.13 188.611C349.623 188.577 349.113 188.47 348.602 188.287C348.107 188.134 347.784 187.702 347.634 186.989C347.417 186.651 347.253 186.304 347.141 185.949C347.058 185.578 347 185.326 346.967 185.192C347.115 185.115 347.164 184.994 347.116 184.831C347.052 184.639 346.989 184.484 346.927 184.366C346.802 184.13 346.68 183.685 346.561 183.032C346.442 182.378 346.308 181.696 346.158 180.983C346.129 180.358 346.07 179.71 345.98 179.041C345.92 178.357 345.859 177.956 345.797 177.838C345.672 177.602 345.607 177.335 345.6 177.037C345.578 176.709 345.578 176.389 345.601 176.075C345.561 175.644 345.462 175.206 345.303 174.762C345.158 174.273 345.023 173.911 344.899 173.675C344.873 173.199 344.847 172.685 344.82 172.134C344.792 171.583 344.713 171.04 344.582 170.506C344.494 169.912 344.37 169.035 344.21 167.875C344.034 166.686 343.873 165.49 343.727 164.285C343.697 163.585 343.644 162.878 343.568 162.164C343.506 161.405 343.47 160.764 343.458 160.243C343.431 159.692 343.462 159.393 343.55 159.346C343.55 159.346 343.527 159.302 343.48 159.214C343.418 159.096 343.355 158.978 343.293 158.86C343.215 158.712 343.185 158.37 343.203 157.833C343.205 157.266 343.185 156.693 343.142 156.112C343.203 155.514 343.192 154.993 343.107 154.547C343.007 154.072 342.957 153.835 342.957 153.835C342.957 153.835 342.969 153.715 342.994 153.476C343.003 153.208 343.035 152.983 343.091 152.803C343.639 151.986 344.179 151.437 344.709 151.157C345.269 150.861 345.839 151.012 346.419 151.61C346.997 152.134 347.342 152.537 347.453 152.818C347.548 153.069 347.6 153.418 347.61 153.865C347.655 154.52 347.703 155.362 347.756 156.389C347.793 157.388 347.847 158.453 347.917 159.584C347.987 160.716 348.056 161.81 348.124 162.867C348.206 163.879 348.285 164.743 348.361 165.457C348.466 166.155 348.557 166.578 348.635 166.725L349.184 172.26C349.175 172.529 349.263 173.16 349.45 174.155C349.62 175.121 349.84 176.286 350.109 177.652C350.363 178.988 350.617 180.362 350.872 181.773C351.141 183.138 351.356 184.401 351.516 185.561C351.604 186.155 351.66 186.653 351.684 187.055C351.723 187.487 351.716 187.83 351.662 188.085C351.608 188.339 351.478 188.521 351.271 188.63C351.153 188.692 350.997 188.718 350.803 188.708C350.609 188.697 350.385 188.665 350.13 188.611ZM365.734 180.255C365.485 180.425 365.046 180.487 364.419 180.441C363.837 180.41 363.171 180.328 362.423 180.195C361.704 180.047 360.992 179.877 360.287 179.684C359.611 179.475 359.055 179.279 358.618 179.095C357.789 178.666 356.702 178.071 355.358 177.311C354.043 176.535 352.874 175.607 351.851 174.526C351.147 173.692 350.529 173.057 349.997 172.622C349.479 172.141 349.104 171.68 348.87 171.238L347.466 168.474L350.577 166.548C351.565 168.062 352.502 169.263 353.386 170.153C354.255 171.013 355.129 171.74 356.007 172.331C356.766 172.911 357.546 173.46 358.348 173.979C359.179 174.482 359.992 174.844 360.787 175.065C361.854 175.444 362.747 175.67 363.464 175.743C364.181 175.817 364.673 175.784 364.938 175.643C365.638 175.613 366.183 175.645 366.573 175.741C366.963 175.837 367.249 175.95 367.43 176.08C367.612 176.21 367.727 176.357 367.776 176.519C367.852 176.592 367.938 176.792 368.035 177.118C368.147 177.473 368.222 177.829 368.26 178.186C368.314 178.573 368.26 178.865 368.101 179.062C368.004 179.377 367.801 179.635 367.492 179.836C367.199 180.066 366.613 180.206 365.734 180.255ZM346.556 168.785L348.523 164.693C348.564 164.557 348.69 164.189 348.901 163.588C349.125 162.942 349.607 161.82 350.347 160.223L353.684 152.41C354.218 151.638 354.67 150.852 355.04 150.054C355.41 149.255 355.731 148.614 356.004 148.131C356.318 147.513 356.639 146.872 356.967 146.208C357.295 145.545 357.526 145.197 357.66 145.164C357.833 144.922 358.175 144.892 358.686 145.074C359.182 145.227 359.657 145.485 360.113 145.847C360.582 146.165 360.864 146.449 360.959 146.701C361.174 146.964 361.262 147.238 361.224 147.523C361.185 147.807 360.95 148.289 360.518 148.97C359.952 149.683 359.526 150.304 359.24 150.832C358.983 151.345 358.864 151.691 358.883 151.869C358.883 151.869 358.698 152.268 358.328 153.067C357.958 153.865 357.502 154.785 356.958 155.826C356.2 157.245 355.601 158.466 355.161 159.49C354.736 160.468 354.499 161.197 354.45 161.675C354.332 161.737 354.237 161.844 354.166 161.994C354.124 162.13 354.037 162.214 353.903 162.246C353.903 162.246 353.832 162.397 353.69 162.698C353.532 162.97 353.44 163.226 353.416 163.465C353.435 163.643 353.403 163.905 353.322 164.25C353.269 164.579 353.103 164.799 352.822 164.91C352.678 165.137 352.442 165.582 352.114 166.245C351.77 166.879 351.42 167.573 351.064 168.326C350.738 169.064 350.462 169.719 350.236 170.291C350.01 170.862 349.898 171.185 349.9 171.26L346.556 168.785Z" fill="#333333"/>
<path d="M438.792 61.4185C438.256 61.4751 437.608 61.4971 436.848 61.4842C436.102 61.5009 435.332 61.3988 434.537 61.1779C433.742 60.9571 433.01 60.5709 432.342 60.0192C431.595 59.3201 430.945 58.5891 430.392 57.8261C429.867 57.0475 429.332 56.1051 428.785 54.999C427.976 53.4664 427.378 52.0856 426.993 50.8566C426.621 49.5825 426.36 48.2315 426.209 46.8034C426.221 46.6838 426.192 46.3788 426.122 45.8883C426.065 45.3528 426.007 44.78 425.949 44.17C425.92 43.5444 425.895 43.0678 425.872 42.7402C425.843 42.1146 425.847 41.2646 425.883 40.1903C425.932 39.0709 426.027 37.9653 426.166 36.8737C426.352 35.1548 426.529 33.7418 426.698 32.6346C426.852 31.498 427.046 30.5095 427.28 29.6693C427.545 28.8135 427.861 27.9491 428.229 27.076C428.627 26.1874 429.148 25.1395 429.792 23.9322C430.191 23.1181 430.86 22.3875 431.8 21.7402C432.77 21.0774 433.857 20.7102 435.064 20.6385C436.254 20.5374 437.397 20.9518 438.491 21.8816C439.142 22.3293 439.702 23.0326 440.171 23.9913C440.624 24.9206 440.969 26.0014 441.205 27.2337C441.426 28.4365 441.527 29.6272 441.508 30.8055C441.49 31.9839 441.319 33.0166 440.996 33.9035C440.8 34.4596 440.315 34.791 439.542 34.8977C438.798 34.9889 438.119 34.9518 437.504 34.7866C436.974 34.4257 436.671 34.2088 436.595 34.1359C436.548 34.0475 436.576 33.9574 436.678 33.8657C436.746 33.5659 436.795 33.0877 436.825 32.431C436.855 31.7742 436.87 31.088 436.869 30.3723C436.852 29.6271 436.809 29.0466 436.741 28.6306C436.322 27.2681 436.056 26.372 435.942 25.9421C435.813 25.4827 435.545 25.1905 435.14 25.0653C434.96 25.0097 434.76 25.0589 434.539 25.213C434.349 25.3514 434.073 25.6856 433.712 26.2155C433.19 26.8684 432.698 27.9007 432.238 29.3126C431.791 30.6795 431.438 32.2232 431.178 33.9437C430.824 36.1286 430.569 38.0354 430.411 39.6642C430.254 41.293 430.303 42.8501 430.56 44.3354C430.563 44.4845 430.577 44.76 430.601 45.1621C430.654 45.5486 430.681 45.7418 430.681 45.7418C430.773 45.8442 430.884 46.1622 431.015 46.6961C431.131 47.2005 431.201 47.6537 431.225 48.0558C431.617 49.5828 432.118 50.9956 432.728 52.2942C433.323 53.5632 433.973 54.6148 434.678 55.449C435.396 56.2382 436.093 56.7371 436.769 56.9456C437.292 57.0085 437.825 56.84 438.368 56.4403C438.911 56.0405 439.479 55.4761 440.075 54.7471C440.67 54.018 441.308 53.2284 441.99 52.3782C442.542 51.7098 443.019 51.0431 443.421 50.378C443.824 49.713 444.103 49.17 444.257 48.749C444.4 48.4476 444.601 48.1151 444.861 47.7514C445.135 47.3427 445.405 47.0683 445.67 46.9282C446.005 46.5628 446.377 46.5172 446.786 46.7914C447.194 47.0656 447.554 47.4974 447.866 48.0869C448.084 48.4996 448.054 49.1563 447.776 50.0572C447.498 50.958 447.114 51.8016 446.624 52.5879C446.513 52.9482 446.306 53.3405 446.002 53.7648C445.712 54.1441 445.4 54.5164 445.065 54.8817C444.695 55.6802 444.17 56.5419 443.49 57.4666C442.81 58.3913 442.061 59.2207 441.242 59.9547C440.453 60.6731 439.636 61.161 438.792 61.4185Z" fill="#333333"/>
<path d="M74.597 102.952C74.2139 103.154 73.8655 103.244 73.5518 103.221C73.2677 103.183 72.8934 103.116 72.4291 103.022C71.5577 102.729 70.7661 102.336 70.0544 101.845C69.3721 101.339 68.9428 100.811 68.7665 100.264C68.7304 99.9812 68.6431 99.7446 68.5047 99.5538C68.3801 99.318 68.3178 99.2001 68.3178 99.2001C68.0926 99.1306 68.0017 99.0655 68.0451 99.0049C68.0729 98.9148 68.0851 98.7953 68.0818 98.6462C68.2587 98.5528 68.232 98.3596 68.0018 98.0665C67.8183 97.8618 67.642 97.3141 67.473 96.4232C67.318 95.4873 67.2746 94.5489 67.3431 93.608C67.3643 93.2198 67.4271 92.6965 67.5317 92.0381C67.6207 91.3502 67.747 90.6615 67.9106 89.972C68.088 89.2374 68.2757 88.6293 68.4737 88.1477C68.8836 87.1395 69.2969 86.2804 69.7134 85.5703C70.1595 84.8446 70.6678 84.2368 71.2384 83.747C71.809 83.2571 72.4332 82.8331 73.1111 82.475C73.8185 82.1014 74.5178 82.0336 75.209 82.2716C76.0426 82.2083 76.7244 82.3571 77.2543 82.718C77.8137 83.0634 78.3478 83.6106 78.8566 84.3597C79.4121 85.1973 79.8997 86.3345 80.3195 87.7715C80.7236 89.179 80.78 91.0341 80.4884 93.3369C80.312 94.7872 80.0258 95.9939 79.6298 96.957C79.2338 97.9202 78.7408 98.878 78.1507 99.8306C77.7497 100.57 77.2189 101.171 76.5582 101.633C75.8975 102.095 75.2438 102.535 74.597 102.952ZM76.2575 95.1759C76.6101 94.2734 76.74 93.4131 76.6472 92.5951C76.5839 91.7615 76.473 90.8022 76.3146 89.7173C76.3391 89.4782 76.2571 89.1445 76.0686 88.7163C75.9096 88.2725 75.7141 87.8668 75.4823 87.4992C75.2348 87.1022 75.0071 86.9209 74.7991 86.9553C74.4249 86.8891 74.1363 86.985 73.9333 87.243C73.7147 87.4716 73.477 87.8422 73.22 88.3549C72.725 89.5588 72.3512 90.8495 72.0987 92.2269C71.86 93.5593 71.9592 94.996 72.3962 96.537C72.6969 97.3205 73.0664 97.8416 73.5046 98.1002C73.9567 98.3138 74.4238 98.199 74.906 97.7558C75.4021 97.2676 75.8526 96.4076 76.2575 95.1759Z" fill="#333333"/>
<path fill-rule="evenodd" clip-rule="evenodd" d="M208.939 110.327C206.359 102.57 203.95 98.3376 196.478 91.1165C193.363 89.4291 188.95 88.2609 183.239 87.7417C164.312 86.1738 152.474 98.7656 155.981 116.298V116.168C157.947 110.269 160.35 105.55 165.975 102.279C165.139 113.57 178.3 121.322 187.652 122.658C189.503 120.807 192.98 119.544 195.57 120.192C199.464 121.1 203.487 127.59 200.242 134.34C196.997 141.219 190.118 140.181 190.118 140.181L191.546 149.656C216.597 145.762 214.261 125.254 208.939 110.327Z" fill="#BDCCD4"/>
<path d="M218.285 80.0835C209.199 71.7763 201.021 82.6795 196.478 91.1165C203.95 98.3376 206.359 102.57 208.939 110.327C215.689 104.097 228.409 89.8185 218.285 80.0835Z" fill="#ACBDC6"/>
<path d="M206.862 109.029C212.184 123.956 214.52 144.464 189.469 148.358L188.041 138.883C188.041 138.883 194.92 139.921 198.165 133.042C201.41 126.292 197.386 119.802 193.492 118.894C190.903 118.247 187.426 119.509 185.575 121.36C176.5 120.064 162.652 112.196 163.898 100.981C158.273 104.252 155.87 108.971 153.903 114.87C153.903 114.87 153.903 114.87 153.903 115C150.397 97.4677 162.235 84.876 181.161 86.4439C186.873 86.9631 191.286 88.1313 194.401 89.8187C198.944 81.3817 207.121 70.4785 216.207 78.7857C226.332 88.5207 213.611 102.799 206.862 109.029Z" stroke="black" stroke-miterlimit="10" stroke-linecap="round" stroke-linejoin="round"/>
<path d="M189.21 222.085C206.552 226.681 219.883 234.447 232.434 247.266" stroke="black" stroke-miterlimit="10" stroke-linecap="round" stroke-linejoin="round"/>
<path d="M231.092 224.163C236.284 228.187 210.584 230.134 210.584 230.134C210.584 230.134 226.03 220.269 231.092 224.163Z" stroke="black" stroke-miterlimit="10" stroke-linecap="round" stroke-linejoin="round"/>
</svg>
