<svg
              width="489"
              height="543"
              viewBox="0 0 489 543"
              fill="none"
              xmlns="http://www.w3.org/2000/svg"
            >
              <path
                d="M62.7389 494.907C62.7389 494.907 62.137 489.941 62.2875 487.684C62.4188 485.715 91.5142 485.979 98.9471 486.078C100.061 486.093 101.13 486.485 101.997 487.186L125.708 506.368C126.814 507.262 128.245 507.642 129.661 507.515C132.466 507.264 137.592 507.044 143.02 507.999C147.309 508.751 150.017 514.018 151.372 518.984"
                stroke="black"
                stroke-miterlimit="10"
                stroke-linecap="round"
                stroke-linejoin="round"
              />
              <path
                d="M151.899 527.636C149.867 528.539 63.3413 532.602 61.2346 529.442C60.6326 528.464 60.106 525.228 59.7298 521.09C76.2073 521.918 116.762 523.347 151.297 518.758C152.651 523.122 152.802 527.26 151.899 527.636Z"
                fill="#0EB80E"
              />
              <path
                d="M103.971 474.518L118.191 473.088L98.7795 322.232C75.6056 327.048 46.6382 326.672 16.768 325.468C16.768 325.468 9.46969 368.806 7.81441 383.327C5.25625 405.824 1.1933 473.69 1.1933 473.69L28.7311 474.368"
                stroke="black"
                stroke-miterlimit="10"
                stroke-linecap="round"
                stroke-linejoin="round"
              />
              <path
                d="M87.3429 218.55C88.923 219.754 90.3525 221.184 91.6316 222.839C93.1364 224.795 94.4155 227.203 95.5441 229.912L118.041 216.067C118.041 216.067 148.964 271.971 128.499 291.458C118.793 300.712 105.175 299.584 99.3813 298.53L100.585 313.729C100.585 313.729 99.2308 314.556 96.2212 315.61"
                stroke="black"
                stroke-miterlimit="10"
                stroke-linecap="round"
                stroke-linejoin="round"
              />
              <path
                d="M40.5 307C-22 278.5 4.11832 219.365 39.2637 212.606"
                stroke="black"
                stroke-miterlimit="10"
                stroke-linecap="round"
                stroke-linejoin="round"
              />
              <path
                d="M67.0283 322.76C41.7477 325.093 18.5738 320.503 18.5738 320.503C19.2427 313.981 20.5178 301 20.5178 301"
                stroke="black"
                stroke-miterlimit="10"
                stroke-linecap="round"
                stroke-linejoin="round"
              />
              <path
                d="M52.4998 291C57.9998 294 67.0002 297 76.4998 298C78.5619 298.217 80.7077 299.878 80 302C79.1664 304.5 74.9998 304.5 74.9998 304.5M74.9998 304.5C74.9998 304.5 78.4998 305.5 77.9998 308C77.4998 310.5 73.9997 310.565 73.9997 310.565M74.9998 304.5C70 304 61.4999 302 58.4998 300M73.9997 310.565C73.9997 310.565 76.1351 311.663 76.4998 313C77.9998 318.5 52.4999 315.741 44.4998 305.5M73.9997 310.565C68.8728 310.092 60.9998 308.5 56.4998 306.5"
                stroke="black"
                stroke-miterlimit="10"
                stroke-linecap="round"
                stroke-linejoin="round"
              />
              <path
                d="M36.9072 242C28.7752 248.456 29.2554 263.591 37.7696 269.184"
                stroke="black"
                stroke-miterlimit="10"
                stroke-linecap="round"
                stroke-linejoin="round"
              />
              <path
                d="M80.0441 169.42C81.248 173.182 83.0537 179.352 83.8813 185.521"
                stroke="black"
                stroke-miterlimit="10"
                stroke-linecap="round"
                stroke-linejoin="round"
              />
              <path
                d="M81.0981 202.602C79.2924 205.085 77.0352 206.364 74.5523 206.815V206.891C74.4018 206.966 74.2513 206.966 74.0256 207.041C69.8874 208.32 63.191 208.772 53.5603 203.58L53.6356 198.614C53.6356 198.614 47.6164 200.42 43.8544 194.702C42.8763 193.197 42.3495 191.692 42.1238 190.263"
                stroke="black"
                stroke-miterlimit="10"
                stroke-linecap="round"
                stroke-linejoin="round"
              />
              <path
                d="M57.8486 202.45C61.9116 209.598 71.3165 211.705 75.229 212.156L74.5519 206.739C74.4766 206.739 68.3069 208.996 57.8486 202.45Z"
                fill="black"
              />
              <path
                d="M53.7104 182.737C53.7104 182.737 54.4628 187.628 57.2467 185.973C60.0305 184.317 54.0866 175.138 54.0866 175.138C54.0866 175.138 61.4601 178.072 66.5012 172.129C71.467 166.185 69.4355 162.197 69.4355 162.197L79.6681 168.216C79.6681 168.216 82.452 155.877 78.8405 153.394C75.229 150.836 68.9088 152.942 68.9088 152.942C68.9088 152.942 69.5108 147.6 58.9772 148.428C48.4436 149.256 48.2179 160.09 48.2179 160.09C48.2179 160.09 41.371 159.488 38.7376 165.507C36.1042 171.602 40.1672 176.568 40.1672 176.568C40.1672 176.568 35.2014 177.471 37.3081 181.834C39.3396 186.198 42.1987 188.305 42.1987 188.305C42.1987 188.305 43.9292 179.427 53.7104 182.737Z"
                stroke="black"
                stroke-miterlimit="10"
                stroke-linecap="round"
                stroke-linejoin="round"
              />
              <path
                d="M51.2275 183.113C51.2275 183.113 51.9799 188.004 54.7638 186.349C57.5477 184.693 51.6037 175.514 51.6037 175.514C51.6037 175.514 58.9772 178.448 64.0183 172.504C68.9841 166.561 66.9526 162.573 66.9526 162.573L77.1853 168.592C77.1853 168.592 79.9691 156.253 76.3576 153.77C72.7461 151.212 66.426 153.318 66.426 153.318C66.426 153.318 67.0279 147.976 56.4943 148.804C45.9607 149.632 45.735 160.466 45.735 160.466C45.735 160.466 38.8881 159.864 36.2547 165.883C33.6213 171.978 37.6843 176.944 37.6843 176.944C37.6843 176.944 32.7185 177.847 34.8252 182.21C36.8567 186.574 39.7158 188.681 39.7158 188.681C39.7158 188.681 41.4463 179.728 51.2275 183.113Z"
                fill="black"
              />
              <path
                d="M4.65412 515.147C4.65412 507.387 7.44831 497.307 8.60302 493.472C8.91861 492.424 9.06529 491.339 9.03862 490.244C8.99833 488.591 8.97903 486.096 9.16852 484.675C9.41709 482.811 35.4832 484.642 44.5498 485.336C46.549 485.489 48.4167 486.316 49.8907 487.675L70.79 506.946"
                stroke="black"
                stroke-miterlimit="10"
                stroke-linecap="round"
                stroke-linejoin="round"
              />
              <path
                d="M72.9719 508.902C72.9719 508.902 80.4959 508.15 88.4713 510.106C92.6848 511.084 95.0924 516.576 96.0706 521.618C96.9734 526.132 96.7477 530.195 95.7696 530.496"
                stroke="black"
                stroke-miterlimit="10"
                stroke-linecap="round"
                stroke-linejoin="round"
              />
              <path
                d="M95.3937 530.346C93.287 531.099 6.6858 529.594 4.8048 526.283C4.20288 525.305 3.97717 521.995 3.82669 517.856C20.229 519.737 60.6328 523.8 95.3937 521.468C96.4471 525.832 96.3718 529.97 95.3937 530.346Z"
                fill="#0EB80E"
              />
              <path
                d="M97.35 225.925C96.1462 223.969 94.1899 221.034 92.1584 218.928C88.3965 215.091 85.8383 210.275 84.8602 205.008C84.6345 203.88 84.484 202.751 84.3335 201.623C83.5059 195.378 83.7316 190.186 85.0859 189.058C85.6878 188.531 86.2898 188.38 86.8164 188.38C89.4498 188.606 91.406 193.798 91.406 193.798M91.406 193.798C91.406 193.798 87.945 188.23 90.0517 185.672C92.1585 183.114 95.77 190.412 95.77 190.412M91.406 193.798C93.2612 199.708 94.5078 202.965 97.4073 208.522M95.77 190.412C95.77 190.412 95.1681 184.167 98.4034 186.048C99.1558 186.499 99.6824 187.177 100.059 187.929C101.864 191.841 109.539 207.642 113.978 215.241M95.77 190.412C97.8947 197.037 99.2322 200.696 102.384 206.863"
                stroke="black"
                stroke-miterlimit="10"
                stroke-linecap="round"
                stroke-linejoin="round"
              />
              <mask
                id="mask0_283_688"
                style="mask-type: alpha"
                maskUnits="userSpaceOnUse"
                x="46"
                y="204"
                width="38"
                height="56"
              >
                <path
                  d="M52.6568 204.331C52.6568 204.331 49.9482 205.084 48.8948 205.46C47.7662 205.836 44.3805 214.714 47.6158 218.251C50.8511 221.787 58.6008 224.872 65.8238 224.872C79.668 224.872 83.3548 217.197 83.3548 217.197L79.8185 204.105C79.7432 204.105 70.8649 214.263 52.6568 204.331Z"
                  fill="#0EB80E"
                />
                <path
                  d="M51.5288 218.175C51.5288 218.175 45.3591 250.077 46.1868 252.033C46.9392 253.989 60.5576 255.118 62.2881 254.365C64.0939 253.613 58.8271 219.905 58.8271 219.905L51.5288 218.175Z"
                  fill="#0EB80E"
                />
                <path
                  d="M55.7428 219.905C55.7428 219.905 56.42 240.069 59.1286 241.198C61.8373 242.327 72.8223 243.154 74.4776 241.198C76.1328 239.242 65.2983 219.679 65.2983 219.679L55.7428 219.905Z"
                  fill="#0EB80E"
                />
                <path
                  d="M47.6162 258.73C47.1648 258.73 46.7133 258.354 46.7133 257.827V250.077C46.7133 249.626 47.0895 249.175 47.6162 249.175C48.0676 249.175 48.519 249.551 48.519 250.077V257.827C48.519 258.354 48.1429 258.73 47.6162 258.73Z"
                  fill="#0EB80E"
                />
                <path
                  d="M52.6578 259.256C52.2064 259.256 51.755 258.88 51.755 258.354V251.582C51.755 251.131 52.1311 250.679 52.6578 250.679C53.1092 250.679 53.5607 251.055 53.5607 251.582V258.354C53.5607 258.88 53.1092 259.256 52.6578 259.256Z"
                  fill="#0EB80E"
                />
                <path
                  d="M58.8276 259.256C58.3762 259.256 58 258.955 58 258.504L57.0219 251.732C56.9466 251.281 57.2476 250.829 57.7743 250.754C58.2257 250.679 58.6771 250.98 58.7524 251.506L59.7305 258.278C59.8057 258.729 59.5048 259.181 58.9781 259.256C58.9028 259.256 58.9028 259.256 58.8276 259.256Z"
                  fill="#0EB80E"
                />
                <path
                  d="M63.8685 259.255C63.4923 259.255 63.1914 259.03 63.0409 258.729L61.4608 254.741C61.3104 254.29 61.5361 253.763 61.9875 253.612C62.439 253.462 62.9657 253.688 63.1161 254.139L64.6962 258.127C64.8466 258.578 64.621 259.105 64.1695 259.255C64.0943 259.255 64.019 259.255 63.8685 259.255Z"
                  fill="#0EB80E"
                />
                <path
                  d="M65.4481 247.293C65.0719 247.293 64.6957 247.067 64.6205 246.691L62.8147 240.822C62.6642 240.371 62.9652 239.844 63.4167 239.769C63.8681 239.619 64.3948 239.92 64.5453 240.371L66.351 246.24C66.5015 246.691 66.2005 247.218 65.7491 247.293C65.5986 247.218 65.5234 247.293 65.4481 247.293Z"
                  fill="#0EB80E"
                />
                <path
                  d="M71.4676 247.293C71.1666 247.293 70.7904 247.067 70.64 246.766L68.0818 240.898C67.8561 240.446 68.0818 239.919 68.5332 239.769C68.9847 239.543 69.5114 239.769 69.6618 240.22L72.22 246.089C72.4457 246.541 72.22 247.067 71.7686 247.218C71.6933 247.218 71.6181 247.293 71.4676 247.293Z"
                  fill="#0EB80E"
                />
                <path
                  d="M75.907 246.465C75.6061 246.465 75.3051 246.315 75.1546 246.014L72.3707 240.972C72.145 240.521 72.2955 239.994 72.7469 239.769C73.1984 239.543 73.7251 239.693 73.9508 240.145L76.7346 245.186C76.9604 245.637 76.8099 246.164 76.3584 246.39C76.208 246.465 76.0575 246.465 75.907 246.465Z"
                  fill="#0EB80E"
                />
              </mask>
              <g mask="url(#mask0_283_688)">
                <path
                  d="M52.6568 204.331C52.6568 204.331 49.9482 205.084 48.8948 205.46C47.7662 205.836 44.3805 214.714 47.6158 218.251C50.8511 221.787 58.6008 224.872 65.8238 224.872C79.668 224.872 83.3548 217.197 83.3548 217.197L79.8185 204.105C79.7432 204.105 70.8649 214.263 52.6568 204.331Z"
                  fill="#0EB80E"
                />
                <path
                  d="M51.5288 218.175C51.5288 218.175 45.3591 250.077 46.1868 252.033C46.9392 253.989 60.5576 255.118 62.2881 254.365C64.0939 253.613 58.8271 219.905 58.8271 219.905L51.5288 218.175Z"
                  fill="#0EB80E"
                />
                <path
                  d="M55.7428 219.905C55.7428 219.905 56.42 240.069 59.1286 241.198C61.8373 242.327 72.8223 243.154 74.4776 241.198C76.1328 239.242 65.2983 219.679 65.2983 219.679L55.7428 219.905Z"
                  fill="#0EB80E"
                />
                <path
                  d="M47.6162 258.73C47.1648 258.73 46.7133 258.354 46.7133 257.827V250.077C46.7133 249.626 47.0895 249.175 47.6162 249.175C48.0676 249.175 48.519 249.551 48.519 250.077V257.827C48.519 258.354 48.1429 258.73 47.6162 258.73Z"
                  fill="#0EB80E"
                />
                <path
                  d="M52.6578 259.256C52.2064 259.256 51.755 258.88 51.755 258.354V251.582C51.755 251.131 52.1311 250.679 52.6578 250.679C53.1092 250.679 53.5607 251.055 53.5607 251.582V258.354C53.5607 258.88 53.1092 259.256 52.6578 259.256Z"
                  fill="#0EB80E"
                />
                <path
                  d="M58.8276 259.256C58.3762 259.256 58 258.955 58 258.504L57.0219 251.732C56.9466 251.281 57.2476 250.829 57.7743 250.754C58.2257 250.679 58.6771 250.98 58.7524 251.506L59.7305 258.278C59.8057 258.729 59.5048 259.181 58.9781 259.256C58.9028 259.256 58.9028 259.256 58.8276 259.256Z"
                  fill="#0EB80E"
                />
                <path
                  d="M63.8685 259.255C63.4923 259.255 63.1914 259.03 63.0409 258.729L61.4608 254.741C61.3104 254.29 61.5361 253.763 61.9875 253.612C62.439 253.462 62.9657 253.688 63.1161 254.139L64.6962 258.127C64.8466 258.578 64.621 259.105 64.1695 259.255C64.0943 259.255 64.019 259.255 63.8685 259.255Z"
                  fill="#0EB80E"
                />
                <path
                  d="M65.4481 247.293C65.0719 247.293 64.6957 247.067 64.6205 246.691L62.8147 240.822C62.6642 240.371 62.9652 239.844 63.4167 239.769C63.8681 239.619 64.3948 239.92 64.5453 240.371L66.351 246.24C66.5015 246.691 66.2005 247.218 65.7491 247.293C65.5986 247.218 65.5234 247.293 65.4481 247.293Z"
                  fill="#0EB80E"
                />
                <path
                  d="M71.4676 247.293C71.1666 247.293 70.7904 247.067 70.64 246.766L68.0818 240.898C67.8561 240.446 68.0818 239.919 68.5332 239.769C68.9847 239.543 69.5114 239.769 69.6618 240.22L72.22 246.089C72.4457 246.541 72.22 247.067 71.7686 247.218C71.6933 247.218 71.6181 247.293 71.4676 247.293Z"
                  fill="#0EB80E"
                />
                <path
                  d="M75.907 246.465C75.6061 246.465 75.3051 246.315 75.1546 246.014L72.3707 240.972C72.145 240.521 72.2955 239.994 72.7469 239.769C73.1984 239.543 73.7251 239.693 73.9508 240.145L76.7346 245.186C76.9604 245.637 76.8099 246.164 76.3584 246.39C76.208 246.465 76.0575 246.465 75.907 246.465Z"
                  fill="#0EB80E"
                />
                <path
                  d="M46 209L51 207L56 209L61 207L66 209L71 207L76 209L81 207L86 209"
                  stroke="#F4FAFA"
                  stroke-linecap="round"
                  stroke-linejoin="round"
                />
                <path
                  d="M46 214L51 212L56 214L61 212L66 214L71 212L76 214L81 212L86 214"
                  stroke="#F4FAFA"
                  stroke-linecap="round"
                  stroke-linejoin="round"
                />
                <path
                  d="M46 219L51 217L56 219L61 217L66 219L71 217L76 219L81 217L86 219"
                  stroke="#F4FAFA"
                  stroke-linecap="round"
                  stroke-linejoin="round"
                />
                <path
                  d="M46 224L51 222L56 224L61 222L66 224L71 222L76 224L81 222L86 224"
                  stroke="#F4FAFA"
                  stroke-linecap="round"
                  stroke-linejoin="round"
                />
                <path
                  d="M46 229L51 227L56 229L61 227L66 229L71 227L76 229L81 227L86 229"
                  stroke="#F4FAFA"
                  stroke-linecap="round"
                  stroke-linejoin="round"
                />
                <path
                  d="M46 234L51 232L56 234L61 232L66 234L71 232L76 234L81 232L86 234"
                  stroke="#F4FAFA"
                  stroke-linecap="round"
                  stroke-linejoin="round"
                />
                <path
                  d="M46 239L51 237L56 239L61 237L66 239L71 237L76 239L81 237L86 239"
                  stroke="#F4FAFA"
                  stroke-linecap="round"
                  stroke-linejoin="round"
                />
                <path
                  d="M46 244L51 242L56 244L61 242L66 244L71 242L76 244L81 242L86 244"
                  stroke="#F4FAFA"
                  stroke-linecap="round"
                  stroke-linejoin="round"
                />
                <path
                  d="M46 249L51 247L56 249L61 247L66 249L71 247L76 249L81 247L86 249"
                  stroke="#F4FAFA"
                  stroke-linecap="round"
                  stroke-linejoin="round"
                />
                <path
                  d="M46 254L51 252L56 254L61 252L66 254L71 252L76 254L81 252L86 254"
                  stroke="#F4FAFA"
                  stroke-linecap="round"
                  stroke-linejoin="round"
                />
                <path
                  d="M46 259L51 257L56 259L61 257L66 259L71 257L76 259L81 257L86 259"
                  stroke="#F4FAFA"
                  stroke-linecap="round"
                  stroke-linejoin="round"
                />
              </g>
              <path
                d="M51.9047 220.056C50.5503 219.228 49.3465 218.325 48.5189 217.422C45.2836 213.886 48.6694 205.008 49.798 204.632C50.9266 204.255 53.56 203.503 53.56 203.503C71.768 213.435 80.6463 203.277 80.6463 203.277L84.1826 216.369C84.1826 216.369 80.9473 223.216 68.9089 223.968C71.9938 229.912 76.5081 239.092 75.3795 240.371L77.5615 244.358C77.7872 244.81 77.6368 245.336 77.1853 245.562C77.0348 245.637 76.8843 245.637 76.7338 245.637C76.4329 245.637 76.1319 245.487 75.9814 245.186L73.7242 241.123C73.0471 241.274 72.2947 241.349 71.4671 241.424L73.1223 245.186C73.3481 245.637 73.1224 246.164 72.6709 246.315C72.5204 246.39 72.4452 246.39 72.2947 246.39C71.9938 246.39 71.6175 246.164 71.4671 245.863L69.5108 241.499C68.307 241.499 67.0279 241.424 65.8241 241.349L67.0279 245.261C67.1784 245.713 66.8775 246.239 66.426 246.315C66.3508 246.315 66.2755 246.315 66.2003 246.315C65.8241 246.315 65.4479 246.089 65.3726 245.713L63.9431 241.048C63.4916 240.973 63.0402 240.897 62.5887 240.897C63.1907 246.164 63.5669 250.829 63.3411 252.635C63.5669 252.71 63.7926 252.86 63.8678 253.161L65.4479 257.149C65.5983 257.601 65.3727 258.127 64.9212 258.278C64.846 258.353 64.6955 258.353 64.6202 258.353C64.244 258.353 63.9431 258.127 63.7926 257.826L62.2125 253.839C62.2125 253.763 62.2125 253.763 62.2125 253.688C61.6106 253.763 60.8582 253.763 59.8801 253.763L60.4068 257.45C60.4821 257.902 60.1811 258.353 59.6544 258.428C59.5792 258.428 59.5792 258.428 59.5039 258.428C59.0525 258.428 58.6763 258.127 58.6763 257.676L58.0744 253.688C56.8705 253.613 55.5162 253.462 54.2371 253.312V257.525C54.2371 257.977 53.8609 258.428 53.3342 258.428C52.8828 258.428 52.4314 258.052 52.4314 257.525V253.086C51.2275 252.86 50.0989 252.635 49.1208 252.409V256.999C49.1208 257.45 48.7446 257.902 48.2179 257.902C47.7665 257.902 47.3151 257.525 47.3151 256.999V251.732C47.0141 251.581 46.8636 251.356 46.7884 251.205C46.4122 249.625 50.4751 227.73 51.9047 220.056Z"
                stroke="black"
                stroke-miterlimit="10"
                stroke-linecap="round"
                stroke-linejoin="round"
              />
              <path
                d="M61.8362 225.475L62.9648 238.265"
                stroke="black"
                stroke-miterlimit="10"
                stroke-linecap="round"
                stroke-linejoin="round"
              />
              <path
                d="M67.103 224.044C61.8362 224.044 58.3752 223.066 53.6351 221.034"
                stroke="black"
                stroke-miterlimit="10"
                stroke-linecap="round"
                stroke-linejoin="round"
              />
              <path
                d="M54.8383 494.982L47.7657 502.055L64.8452 504.162"
                stroke="black"
                stroke-miterlimit="10"
                stroke-linecap="round"
                stroke-linejoin="round"
              />
              <path
                d="M108.635 494.908L102.014 502.357L119.168 503.41"
                stroke="black"
                stroke-miterlimit="10"
                stroke-linecap="round"
                stroke-linejoin="round"
              />
              <path
                d="M90.8037 334.12L66.3507 343.074L64.4697 473.991"
                stroke="black"
                stroke-miterlimit="10"
                stroke-linecap="round"
                stroke-linejoin="round"
              />
              <path
                d="M31.9663 331.186V332.615C31.9663 338.785 26.9253 343.826 20.7556 343.826"
                stroke="black"
                stroke-miterlimit="10"
                stroke-linecap="round"
                stroke-linejoin="round"
              />
              <path
                d="M76.9585 194.625C76.9585 194.625 71.6165 195.302 71.5412 196.506C71.3907 197.785 76.507 197.936 76.507 197.936L76.9585 194.625Z"
                stroke="black"
                stroke-miterlimit="10"
                stroke-linejoin="round"
              />
              <path
                d="M67.3282 178.448L67.9302 185.596"
                stroke="black"
                stroke-miterlimit="10"
                stroke-linecap="round"
                stroke-linejoin="round"
              />
              <path
                d="M78.7648 178.072L79.3667 185.07"
                stroke="black"
                stroke-miterlimit="10"
                stroke-linecap="round"
                stroke-linejoin="round"
              />
              <path
                d="M46.4874 184.92L52.958 192.444"
                stroke="black"
                stroke-miterlimit="10"
                stroke-linecap="round"
                stroke-linejoin="round"
              />
              <path
                d="M45.6607 189.961L50.4761 189.51"
                stroke="black"
                stroke-miterlimit="10"
                stroke-linecap="round"
                stroke-linejoin="round"
              />
              <path
                d="M81.1719 174.611C79.1404 172.504 77.1089 172.052 75.2279 174.46"
                stroke="black"
                stroke-miterlimit="10"
                stroke-linecap="round"
                stroke-linejoin="round"
              />
              <path
                d="M69.6616 174.31C67.1035 173.633 65.072 174.085 64.0186 176.417"
                stroke="black"
                stroke-miterlimit="10"
                stroke-linecap="round"
                stroke-linejoin="round"
              />
              <path
                d="M74.7019 181.76C77.1848 184.092 78.1629 186.801 76.6581 190.187"
                stroke="black"
                stroke-miterlimit="10"
                stroke-linecap="round"
                stroke-linejoin="round"
              />
              <path
                d="M99.0049 171.525L91.0294 179.576"
                stroke="black"
                stroke-miterlimit="10"
                stroke-linecap="round"
                stroke-linejoin="round"
              />
              <path
                d="M116.687 172.655L100.284 183.038"
                stroke="black"
                stroke-miterlimit="10"
                stroke-linecap="round"
                stroke-linejoin="round"
              />
              <path
                d="M95.6185 181.383L107.356 172.655"
                stroke="black"
                stroke-miterlimit="10"
                stroke-linecap="round"
                stroke-linejoin="round"
              />
              <path
                d="M97 268.5L98.8828 292.5"
                stroke="black"
                stroke-miterlimit="10"
                stroke-linecap="round"
                stroke-linejoin="round"
              />
              <path
                d="M34.5209 303.59L50.591 279.568L42.0612 274.421L25.8594 298.789L34.5209 303.59Z"
                fill="#0EB80E"
              />
              <path
                d="M50.591 279.568L34.5209 303.59L25.8594 298.789L42.0612 274.421"
                stroke="black"
                stroke-miterlimit="10"
                stroke-linecap="round"
                stroke-linejoin="round"
              />
              <path
                d="M97.3489 233.524L120.598 221.034L124.812 230.063L101.487 242.327"
                fill="#0EB80E"
              />
              <path
                d="M97.3489 233.524L120.598 221.034L124.812 230.063L101.487 242.327"
                stroke="black"
                stroke-miterlimit="10"
                stroke-linecap="round"
                stroke-linejoin="round"
              />
              <mask
                id="mask1_283_688"
                style="mask-type: alpha"
                maskUnits="userSpaceOnUse"
                x="251"
                y="73"
                width="238"
                height="172"
              >
                <path
                  d="M346.264 80.303C346.264 80.303 339.443 81.2675 333.656 85.8835C332.181 87.0744 330.783 88.412 329.522 89.7414C325.894 93.5649 323.39 97.3202 323.39 97.3202L314.916 130.941C314.916 130.941 313.146 164.375 311.721 194.057C310.599 217.405 309.691 238.432 310.025 239.038C310.783 240.416 322.77 244.963 324.699 244.963C325.883 245.006 326.548 210.923 326.853 184.379C327.046 167.657 327.095 153.927 327.042 153.608C326.904 152.781 321.324 137.9 325.182 124.947C327.478 117.375 330.904 105.871 335.336 96.1744C338.485 89.2847 342.143 83.3079 346.264 80.303Z"
                  fill="#0EB80E"
                />
                <path
                  d="M380.367 73.7567C377.405 73.3433 374.373 73.3433 371.48 74.0323C370.102 74.3079 368.93 74.7901 368.793 75.3413C368.31 76.857 378.851 243.377 380.092 244.342C381.332 245.307 402.551 245.927 416.606 240.622C430.661 235.317 435.621 229.392 436.31 227.738C436.93 226.085 412.886 100.213 411.37 95.1832C409.854 90.2916 405.032 77.4082 380.367 73.7567Z"
                  fill="#0EB80E"
                />
                <path
                  d="M380.367 73.7587C380.367 73.7587 463.18 80.3727 485.295 118.747C502.726 149.13 447.54 204.247 447.54 204.247L420.258 173.037L380.367 73.7587Z"
                  fill="#0EB80E"
                />
                <path
                  d="M329.522 89.7414C324.582 94.555 316.072 103.707 308.302 116.265C296.383 135.418 294.868 134.178 291.905 136.107C288.943 138.036 259.455 135.074 256.079 136.107C252.703 137.141 251.463 190.604 251.463 190.604C251.463 190.604 282.191 202.523 306.029 196.046C307.982 195.516 309.88 194.844 311.721 194.057C313.146 164.375 314.916 130.941 314.916 130.941L323.39 97.3202C323.39 97.3202 325.894 93.5649 329.522 89.7414Z"
                  fill="#0EB80E"
                />
              </mask>
              <g mask="url(#mask1_283_688)">
                <path
                  d="M346.264 80.303C346.264 80.303 339.443 81.2675 333.656 85.8835C332.181 87.0744 330.783 88.412 329.522 89.7414C325.894 93.5649 323.39 97.3202 323.39 97.3202L314.916 130.941C314.916 130.941 313.146 164.375 311.721 194.057C310.599 217.405 309.691 238.432 310.025 239.038C310.783 240.416 322.77 244.963 324.699 244.963C325.883 245.006 326.548 210.923 326.853 184.379C327.046 167.657 327.095 153.927 327.042 153.608C326.904 152.781 321.324 137.9 325.182 124.947C327.478 117.375 330.904 105.871 335.336 96.1744C338.485 89.2847 342.143 83.3079 346.264 80.303Z"
                  fill="#0EB80E"
                />
                <path
                  d="M380.367 73.7567C377.405 73.3433 374.373 73.3433 371.48 74.0323C370.102 74.3079 368.93 74.7901 368.793 75.3413C368.31 76.857 378.851 243.377 380.092 244.342C381.332 245.307 402.551 245.927 416.606 240.622C430.661 235.317 435.621 229.392 436.31 227.738C436.93 226.085 412.886 100.213 411.37 95.1832C409.854 90.2916 405.032 77.4082 380.367 73.7567Z"
                  fill="#0EB80E"
                />
                <path
                  d="M380.367 73.7587C380.367 73.7587 463.18 80.3727 485.295 118.747C502.726 149.13 447.54 204.247 447.54 204.247L420.258 173.037L380.367 73.7587Z"
                  fill="#0EB80E"
                />
                <path
                  d="M329.522 89.7414C324.582 94.555 316.072 103.707 308.302 116.265C296.383 135.418 294.868 134.178 291.905 136.107C288.943 138.036 259.455 135.074 256.079 136.107C252.703 137.141 251.463 190.604 251.463 190.604C251.463 190.604 282.191 202.523 306.029 196.046C307.982 195.516 309.88 194.844 311.721 194.057C313.146 164.375 314.916 130.941 314.916 130.941L323.39 97.3202C323.39 97.3202 325.894 93.5649 329.522 89.7414Z"
                  fill="#0EB80E"
                />
                <path
                  d="M257.456 120.033L378.439 241.016M248.445 74.554L414.907 241.016M288.626 74.5544L455.088 241.016M335.429 74.5545L501.891 241.016M376.493 74.5545L542.955 241.016M414.024 74.5545L580.486 241.016M214.448 120.034L335.43 241.016M510.543 120.033L389.56 241.016M519.553 74.5539L353.092 241.016M479.373 74.5544L312.911 241.016M432.57 74.5544L266.108 241.016M391.506 74.5544L225.044 241.016M353.975 74.5544L187.513 241.016M553.551 120.034L432.569 241.016"
                  stroke="#F4FAFA"
                  stroke-width="2"
                  stroke-linecap="round"
                />
              </g>
              <path
                d="M439.202 202.66C438.927 206.105 438.927 210.239 439.891 214.924C440.925 220.091 442.027 225.878 446.505 230.907C449.054 233.801 451.741 235.248 451.259 236.35C450.708 237.728 445.816 237.315 443.611 236.419C436.86 233.594 436.86 233.594 436.86 233.594C436.86 233.594 451.052 242.137 441.2 242.826C431.279 243.515 427.834 236.419 427.834 236.419C427.834 236.419 432.864 240.69 431.761 243.033C431.417 243.791 430.452 244.066 429.97 244.273C428.248 244.893 426.732 244.342 425.561 243.929C423.149 243.033 421.565 241.448 420.669 240.346"
                stroke="black"
                stroke-miterlimit="10"
                stroke-linecap="round"
                stroke-linejoin="round"
              />
              <path
                d="M348.812 466.462C341.302 466.117 298.104 465.566 297.898 464.67C297.562 463.067 300.323 359.478 300.323 359.478C300.323 359.478 317.147 269.244 318.98 251.577C318.98 251.37 323.182 249.51 323.182 249.51"
                stroke="black"
                stroke-miterlimit="10"
                stroke-linecap="round"
                stroke-linejoin="round"
              />
              <path
                d="M423.633 244.687C424.253 251.3 424.598 258.259 424.391 265.286C423.702 297.047 414.263 345.343 415.71 348.925C416.261 350.303 419.913 365.391 424.115 383.304L438.79 446.206L428.525 449.168"
                stroke="black"
                stroke-miterlimit="10"
                stroke-linecap="round"
                stroke-linejoin="round"
              />
              <path
                d="M366.175 493.125C366.106 484.513 365.83 477.485 364.659 477.554C364.061 477.568 362.346 477.942 360 478.524L361 494.227L366.175 493.125Z"
                fill="#0EB80E"
              />
              <path
                fill-rule="evenodd"
                clip-rule="evenodd"
                d="M446.229 493.953C447.4 496.916 446.229 500.154 443.542 501.394L426.5 459.135C428.455 457.779 429.902 456.837 430.451 456.612C432.027 456.002 437.349 470.308 441.887 482.503C443.502 486.843 445.017 490.915 446.229 493.953Z"
                fill="#0EB80E"
              />
              <path
                d="M364.659 477.554C364.061 477.569 362.346 477.942 360 478.525C350.993 480.763 332.692 486.098 332.692 486.098C332.692 486.098 331.52 468.805 319.533 472.112C310.301 474.661 299.829 485.891 295.419 490.92C294.041 492.505 292.25 493.676 290.252 494.227C281.709 496.501 258.147 504.01 258.009 516.756C257.871 532.326 264.072 530.397 266.965 530.397C268.894 530.397 310.438 527.573 339.168 525.575"
                stroke="black"
                stroke-miterlimit="10"
                stroke-linecap="round"
                stroke-linejoin="round"
              />
              <path
                d="M443.542 501.393C425.215 509.868 360.316 539.768 357.973 540.664C355.286 541.766 350.119 545.762 344.745 531.156C340.336 519.237 359.696 503.874 366.861 498.638C368.514 497.466 369.754 495.744 370.512 493.746C372.786 487.408 378.642 473.215 386.358 467.566C396.348 460.194 403.582 475.971 403.582 475.971C403.582 475.971 418.889 464.414 426.5 459.135C428.455 457.779 429.902 456.837 430.451 456.611"
                stroke="black"
                stroke-miterlimit="10"
                stroke-linecap="round"
                stroke-linejoin="round"
              />
              <path
                d="M325.801 209.965C331.381 210.723 338.133 211.137 345.78 210.586C355.081 209.965 362.935 208.174 368.998 206.245"
                stroke="black"
                stroke-miterlimit="10"
                stroke-linecap="round"
                stroke-linejoin="round"
              />
              <path
                d="M305.683 232.081C305.546 236.283 305.546 238.832 305.615 239.039C306.372 240.417 318.36 244.964 320.289 244.964C321.46 244.964 322.149 210.861 322.425 184.267C322.632 167.594 322.701 153.884 322.632 153.609C322.494 152.782 316.913 137.9 320.772 124.948C322.976 117.369 326.421 105.864 330.83 96.2186C333.999 89.329 337.651 83.3351 341.785 80.3037C341.785 80.3037 334.964 81.2682 329.177 85.8842L329.108 85.9531L329.039 86.022C329.039 86.022 328.97 86.0909 328.901 86.1598C328.832 86.2287 328.832 86.2287 328.763 86.2976C328.695 86.3665 328.626 86.4354 328.557 86.5043C327.592 87.3311 326.628 88.1578 325.732 89.1223L325.663 89.1912C320.84 93.8072 311.953 103.246 303.754 116.336C291.835 135.489 290.32 134.249 287.357 136.178C284.326 138.107 254.907 135.145 251.532 136.178C250.843 136.385 250.223 138.796 249.74 142.447"
                stroke="black"
                stroke-miterlimit="10"
                stroke-linecap="round"
                stroke-linejoin="round"
              />
              <path
                d="M247.054 185.851C246.985 188.813 246.917 190.673 246.917 190.673C246.917 190.673 277.644 202.592 301.482 196.116C303.48 195.565 305.409 194.876 307.338 194.049C307.062 199.492 306.856 204.797 306.58 209.826"
                stroke="black"
                stroke-miterlimit="10"
                stroke-linecap="round"
                stroke-linejoin="round"
              />
              <path
                d="M339.304 77.8226L339.235 71.8976C334.894 71.5531 330.692 69.2796 327.936 63.1479C327.04 61.081 326.42 58.7386 326.076 56.1895"
                stroke="black"
                stroke-miterlimit="10"
                stroke-linecap="round"
                stroke-linejoin="round"
              />
              <path
                d="M372.099 41.4443C374.373 44.2691 375.475 49.0917 372.995 53.9833C369.343 61.0107 362.178 59.7016 362.178 59.7016L363.763 71.6206"
                stroke="black"
                stroke-miterlimit="10"
                stroke-linecap="round"
                stroke-linejoin="round"
              />
              <path
                d="M320.221 34.0734C320.083 45.8545 327.937 52.1929 327.937 52.1929C327.799 44.9589 328.419 38.0004 329.797 31.3176L334.482 19.6742C334.482 19.6742 334.551 24.1524 342.75 33.7978C343.025 34.0734 343.232 34.4179 343.508 34.6934C352.395 44.9589 362.316 41.2385 362.316 41.2385C364.245 39.9295 366.174 38.965 367.965 38.6894C369.412 38.4827 370.79 38.6894 372.168 39.5161C372.306 39.585 372.444 39.6539 372.581 39.7917L372.65 39.6539C372.65 39.6539 372.719 38.965 372.788 37.8626C376.302 38.0004 380.16 37.3115 383.26 34.6245C388.703 29.9396 395.317 8.58204 379.678 2.17476C367.483 -2.85461 359.974 9.54658 357.287 15.196C354.324 13.7492 344.954 9.82216 332.071 11.3379C316.432 13.3358 323.321 23.0501 323.321 23.0501C323.321 23.0501 320.29 26.1504 320.221 34.0734Z"
                fill="#BDCCD4"
              />
              <path
                d="M383.26 34.6245C380.16 37.3115 376.302 38.0004 372.788 37.8626C372.365 25.136 369.155 20.2555 357.287 15.196C359.974 9.54658 367.483 -2.85461 379.678 2.17476C395.317 8.58204 388.703 29.9396 383.26 34.6245Z"
                fill="#ACBDC6"
              />
              <path
                d="M318.016 34.0734C317.878 45.8545 325.733 52.1929 325.733 52.1929C325.595 44.9589 326.215 38.0004 327.593 31.3176L332.278 19.6742C332.278 19.6742 332.347 24.1524 340.545 33.7978C340.821 34.0734 341.027 34.4179 341.303 34.6934C350.19 44.9589 360.111 41.2385 360.111 41.2385C362.04 39.9295 363.97 38.965 365.761 38.6894C367.208 38.4827 368.586 38.6894 369.963 39.5161C370.101 39.585 370.239 39.6539 370.377 39.7917L370.446 39.6539C370.446 39.6539 370.515 38.965 370.584 37.8626C374.097 38.0004 377.955 37.3115 381.056 34.6245C386.498 29.9396 393.112 8.58204 377.473 2.17476C365.279 -2.85461 357.769 9.54658 355.082 15.196C352.12 13.7492 342.75 9.82216 329.866 11.3379C314.089 13.198 321.048 22.9123 321.048 22.9123C321.048 22.9123 318.085 26.1504 318.016 34.0734Z"
                stroke="black"
                stroke-miterlimit="10"
                stroke-linecap="round"
                stroke-linejoin="round"
              />
              <path
                d="M343.025 61.1484C341.549 62.3014 339.144 62.6469 336.48 62.733"
                stroke="black"
                stroke-miterlimit="10"
                stroke-linecap="round"
                stroke-linejoin="round"
              />
              <path
                d="M341 42L343.825 44.3424L342.998 49.6474"
                stroke="black"
                stroke-miterlimit="10"
                stroke-linecap="round"
                stroke-linejoin="round"
              />
              <path
                d="M326.903 43.1719L329.108 44.9632L328.35 50.4059"
                stroke="black"
                stroke-miterlimit="10"
                stroke-linecap="round"
                stroke-linejoin="round"
              />
              <path
                d="M335.516 43.3066C333.173 47.8537 333.449 51.5741 334.964 54.8811"
                stroke="black"
                stroke-miterlimit="10"
                stroke-linecap="round"
                stroke-linejoin="round"
              />
              <path
                d="M326.904 36.2091C326.973 36.2091 327.042 36.2091 327.179 36.1402L331.313 34.7623C331.726 34.6245 331.933 34.1423 331.795 33.7289C331.658 33.3155 331.175 33.1088 330.762 33.2466L326.628 34.6245C326.215 34.7623 326.008 35.2446 326.146 35.658C326.284 36.0024 326.559 36.2091 326.904 36.2091Z"
                fill="#ACBDC6"
              />
              <path
                d="M344.954 36.2105C345.299 36.2105 345.574 36.0038 345.712 35.6593C345.85 35.2459 345.643 34.7637 345.23 34.6259L339.236 32.6968C338.822 32.559 338.34 32.7657 338.202 33.1791C338.064 33.5925 338.271 34.0747 338.685 34.2125L344.678 36.1416C344.816 36.2105 344.885 36.2105 344.954 36.2105Z"
                fill="#ACBDC6"
              />
              <path
                d="M325.319 55.433C325.663 55.433 326.077 55.433 326.421 55.3641C330.348 54.6751 332.897 50.5414 332.14 46.0632C331.382 41.6539 327.524 38.6225 323.665 39.2425C319.738 39.9315 317.189 44.0652 317.947 48.5434C318.636 52.5394 321.805 55.433 325.319 55.433ZM324.699 40.7582C327.455 40.7582 329.935 43.1007 330.486 46.3388C331.106 49.9213 329.108 53.2283 326.077 53.7795C323.045 54.3306 320.083 51.8504 319.463 48.2678C318.843 44.6853 320.841 41.3783 323.872 40.8271C324.148 40.7582 324.423 40.7582 324.699 40.7582Z"
                fill="#0EB80E"
              />
              <path
                d="M343.231 53.5712C343.714 53.5712 344.196 53.5023 344.609 53.4334C346.745 53.0889 348.605 51.8488 349.914 50.1264C351.154 48.3351 351.637 46.1994 351.292 44.0636C350.948 41.9278 349.708 40.0677 347.985 38.7587C346.194 37.5185 344.058 37.0363 341.922 37.3807C337.513 38.1386 334.482 42.4101 335.308 46.8194C335.653 48.9552 336.893 50.8154 338.615 52.1244C339.924 53.02 341.509 53.5712 343.231 53.5712ZM343.231 38.8275C344.54 38.8275 345.849 39.2409 347.021 39.9988C348.467 41.0322 349.432 42.5479 349.708 44.2703C349.983 45.9927 349.639 47.7151 348.605 49.1619C347.572 50.6087 346.056 51.5732 344.334 51.8488C342.611 52.1244 340.889 51.7799 339.442 50.7465C337.995 49.713 337.031 48.1973 336.755 46.475C336.48 44.7526 336.824 43.0302 337.857 41.5834C338.891 40.1366 340.407 39.172 342.129 38.8964C342.473 38.8275 342.887 38.8275 343.231 38.8275Z"
                fill="#0EB80E"
              />
              <path
                d="M331.726 46.406C331.933 46.406 332.14 46.3371 332.278 46.1993C333.035 45.4414 335.102 45.5792 335.722 45.717C336.136 45.7859 336.549 45.5103 336.618 45.0281C336.687 44.6147 336.411 44.2013 335.929 44.1324C335.585 44.0635 332.553 43.6501 331.106 45.097C330.762 45.3725 330.762 45.9237 331.106 46.1993C331.313 46.3371 331.52 46.406 331.726 46.406Z"
                fill="#0EB80E"
              />
              <path
                d="M350.466 44.9593C350.741 44.9593 351.017 44.8215 351.155 44.5459C352.739 41.6523 361.076 40.2055 364.107 39.861C364.52 39.7921 364.865 39.4476 364.796 38.9654C364.727 38.552 364.314 38.2075 363.9 38.2764C362.66 38.4142 351.981 39.6543 349.708 43.788C349.501 44.2014 349.639 44.6837 350.052 44.8904C350.19 44.8904 350.328 44.9593 350.466 44.9593Z"
                fill="#0EB80E"
              />
              <path
                d="M364.245 75.2721C364.992 72.2826 377.299 71.6328 378.962 71.6328C421.493 71.633 470.1 100.118 480.747 118.676C498.178 149.059 442.992 204.176 442.992 204.176L423.702 182.06C428.318 206.656 431.969 226.98 431.693 227.6C431.073 229.254 426.044 235.179 411.989 240.484C397.935 245.788 376.784 245.168 375.475 244.204C374.303 243.308 363.762 76.7878 364.245 75.2721Z"
                stroke="black"
                stroke-miterlimit="10"
                stroke-linecap="round"
                stroke-linejoin="round"
              />
              <path
                d="M415.778 348.925C415.778 348.925 402.344 336.593 395.73 341.553C389.116 346.445 415.778 348.925 415.778 348.925Z"
                stroke="black"
                stroke-miterlimit="10"
                stroke-linecap="round"
                stroke-linejoin="round"
              />
              <path
                d="M331.588 237.659L354.255 253.092L345.091 362.429L365.967 460.261"
                stroke="black"
                stroke-miterlimit="10"
                stroke-linecap="round"
                stroke-linejoin="round"
              />
              <path
                fill-rule="evenodd"
                clip-rule="evenodd"
                d="M251.014 201.985C251.014 191.674 242.654 183.314 232.343 183.314C222.031 183.314 213.672 191.674 213.672 201.985V530.085C213.672 532.846 215.911 535.085 218.672 535.085C221.433 535.085 223.672 532.846 223.672 530.085V201.985C223.672 197.197 227.554 193.314 232.343 193.314C237.132 193.314 241.014 197.197 241.014 201.985V213C241.014 215.761 243.252 218 246.014 218C248.775 218 251.014 215.761 251.014 213V201.985Z"
                fill="#0EB80E"
              />
              <path
                d="M214.244 189C211.998 192.082 210.672 195.879 210.672 199.985V528.084C210.672 530.846 212.911 533.084 215.672 533.084C218.433 533.084 220.672 530.846 220.672 528.084V199.985C220.672 197.212 221.974 194.743 224 193.156M236 182.536C243.024 185.218 248.014 192.019 248.014 199.985V211C248.014 213.761 245.775 216 243.014 216C240.252 216 238.014 213.761 238.014 211V199.985C238.014 196.123 235.489 192.851 232 191.729"
                stroke="black"
                stroke-miterlimit="10"
                stroke-linecap="round"
                stroke-linejoin="round"
              />
              <path
                d="M251.014 149.058C246.191 148.576 232.394 148.35 224.54 152.898C219.579 155.791 214.5 160.908 212.226 166.006C209.884 171.243 209.126 177.03 210.366 182.61C210.71 184.195 211.124 185.504 211.675 185.986C213.397 187.364 215.257 185.917 215.257 185.917C215.257 185.917 217.097 191.139 219.983 190.113C223.684 188.796 219.983 182.518 229.097 172.644C229.097 172.644 220.3 186.729 225.299 191.632C230.222 196.46 229.097 180.239 237.451 180.239C237.451 180.239 247.087 180.061 249.43 178.408"
                stroke="black"
                stroke-miterlimit="10"
                stroke-linecap="round"
                stroke-linejoin="round"
              />
              <path
                d="M215.189 185.781C215.518 177.156 216.902 173.741 221.502 168.847"
                stroke="black"
                stroke-miterlimit="10"
                stroke-linecap="round"
                stroke-linejoin="round"
              />
              <path
                d="M413.092 152.574L434.174 118.401"
                stroke="black"
                stroke-miterlimit="10"
                stroke-linecap="round"
                stroke-linejoin="round"
              />
              <path
                d="M423.426 118.745C418.121 117.781 423.771 135.28 423.771 135.28C423.771 135.28 428.731 119.779 423.426 118.745Z"
                stroke="black"
                stroke-miterlimit="10"
                stroke-linecap="round"
                stroke-linejoin="round"
              />
              <path
                d="M288.184 135.693C288.184 135.693 298.587 150.161 292.387 152.09C286.186 154.02 288.184 135.693 288.184 135.693Z"
                stroke="black"
                stroke-miterlimit="10"
                stroke-linecap="round"
                stroke-linejoin="round"
              />
              <path
                d="M436.93 233.525C435.69 232.699 434.656 231.734 433.829 230.632"
                stroke="black"
                stroke-miterlimit="10"
                stroke-linecap="round"
                stroke-linejoin="round"
              />
              <path
                d="M368.723 43.0986L362.385 52.2617"
                stroke="black"
                stroke-miterlimit="10"
                stroke-linecap="round"
                stroke-linejoin="round"
              />
              <path
                d="M370.238 48.6797H364.864"
                stroke="black"
                stroke-miterlimit="10"
                stroke-linecap="round"
                stroke-linejoin="round"
              />
              <path
                d="M339.235 71.8973C341.853 71.9662 347.296 71.6907 352.808 68.3837C355.357 66.868 357.217 65.0767 358.457 63.6299"
                stroke="black"
                stroke-miterlimit="10"
                stroke-linecap="round"
                stroke-linejoin="round"
              />
            </svg>