 <svg
              width="177"
              height="176"
              viewBox="0 0 177 176"
              fill="none"
              xmlns="http://www.w3.org/2000/svg"
            >
              <path
                d="M156.809 92.64C156.862 91.7266 157.107 90.95 157.546 90.31C157.985 89.6701 158.572 89.1893 159.306 88.8678C160.052 88.5595 160.9 88.4329 161.851 88.488C162.577 88.53 163.222 88.6678 163.786 88.9014C164.35 89.1349 164.821 89.4572 165.199 89.8683C165.589 90.2801 165.875 90.7612 166.057 91.3116C166.237 91.8744 166.308 92.4999 166.268 93.1881C166.242 93.6386 166.146 94.1038 165.98 94.5838C165.814 95.0638 165.551 95.4942 165.19 95.875C165.095 95.9951 164.984 96.0703 164.856 96.1005C164.729 96.1308 164.604 96.1236 164.481 96.0788C164.371 96.0347 164.274 95.9664 164.192 95.8737C164.122 95.7818 164.084 95.6666 164.08 95.5283C164.074 95.4024 164.126 95.2736 164.234 95.1417C164.503 94.8309 164.697 94.5095 164.817 94.1775C164.937 93.8454 165.006 93.523 165.024 93.2102C165.052 92.7222 164.995 92.2921 164.854 91.9198C164.725 91.5482 164.523 91.229 164.25 90.9621C163.977 90.6952 163.631 90.4806 163.214 90.3183C162.796 90.1685 162.305 90.0773 161.742 90.0447C160.654 89.9816 159.775 90.1881 159.108 90.6641C158.452 91.1409 158.097 91.8547 158.042 92.8057C158.024 93.1185 158.055 93.4404 158.137 93.7716C158.217 94.1152 158.373 94.4632 158.603 94.8155C158.695 94.9589 158.732 95.0929 158.712 95.2173C158.692 95.3417 158.636 95.4451 158.543 95.5276C158.463 95.6109 158.36 95.6614 158.233 95.6791C158.106 95.7094 157.981 95.7022 157.858 95.6574C157.747 95.6133 157.652 95.5262 157.572 95.396C157.27 94.9768 157.057 94.525 156.935 94.0409C156.824 93.5574 156.783 93.0905 156.809 92.64Z"
                fill="#818888"
              />
              <path
                d="M156.464 97.4491C156.507 97.2404 156.602 97.0874 156.75 96.99C156.908 96.9074 157.098 96.889 157.318 96.9346L165.014 98.5247C165.186 98.5602 165.322 98.614 165.423 98.6859C165.535 98.7603 165.612 98.853 165.653 98.9639C165.694 99.0747 165.699 99.2038 165.669 99.3511C165.639 99.4984 165.589 99.6161 165.519 99.7041C165.462 99.7947 165.383 99.8679 165.282 99.9238C165.193 99.9823 165.088 100.025 164.968 100.051L158.742 102.028L163.674 106.311C163.775 106.383 163.854 106.463 163.912 106.552C163.983 106.643 164.027 106.742 164.043 106.848C164.072 106.956 164.073 107.078 164.045 107.213C163.999 107.434 163.897 107.585 163.739 107.668C163.594 107.753 163.386 107.768 163.116 107.712L155.42 106.122C155.199 106.076 155.033 105.984 154.921 105.846C154.821 105.71 154.794 105.532 154.839 105.311C154.882 105.102 154.978 104.949 155.126 104.852C155.284 104.769 155.473 104.751 155.694 104.796L162.341 106.169L162.253 106.593L157.38 102.303C157.292 102.234 157.22 102.149 157.164 102.048C157.121 101.949 157.113 101.832 157.141 101.697C157.171 101.55 157.232 101.441 157.323 101.37C157.412 101.312 157.506 101.261 157.605 101.217L163.778 99.2101L163.691 99.6335L157.045 98.2602C156.824 98.2146 156.658 98.1164 156.549 97.9658C156.449 97.83 156.42 97.6577 156.464 97.4491Z"
                fill="#818888"
              />
              <path
                d="M152.501 112.097C152.82 111.267 153.278 110.617 153.874 110.147C154.47 109.678 155.161 109.4 155.947 109.312C156.739 109.24 157.586 109.377 158.487 109.723C159.166 109.983 159.739 110.311 160.205 110.704C160.683 111.103 161.046 111.557 161.292 112.068C161.539 112.579 161.668 113.119 161.678 113.686C161.696 114.27 161.586 114.872 161.347 115.493C161.029 116.323 160.571 116.973 159.975 117.443C159.379 117.912 158.684 118.182 157.891 118.254C157.106 118.342 156.263 118.213 155.362 117.867C154.683 117.607 154.11 117.279 153.644 116.886C153.178 116.492 152.815 116.037 152.557 115.522C152.31 115.011 152.177 114.463 152.16 113.879C152.15 113.312 152.263 112.718 152.501 112.097ZM153.642 112.535C153.44 113.062 153.392 113.573 153.496 114.07C153.601 114.567 153.859 115.015 154.269 115.414C154.675 115.825 155.224 116.163 155.914 116.428C156.979 116.836 157.884 116.909 158.63 116.644C159.371 116.392 159.897 115.862 160.207 115.055C160.413 114.516 160.464 113.999 160.359 113.502C160.262 113.022 160.01 112.576 159.604 112.165C159.205 111.771 158.649 111.436 157.935 111.162C156.882 110.758 155.977 110.686 155.219 110.946C154.473 111.21 153.948 111.74 153.642 112.535Z"
                fill="#818888"
              />
              <path
                d="M148.711 120.406C148.826 120.197 148.977 120.066 149.165 120.012C149.352 119.958 149.555 119.991 149.775 120.112L156.129 123.617L157.455 121.214C157.685 120.797 157.981 120.688 158.343 120.888C158.508 120.979 158.604 121.103 158.631 121.262C158.669 121.426 158.634 121.607 158.525 121.804L155.129 127.961C154.905 128.367 154.617 128.473 154.266 128.279C154.09 128.182 153.983 128.052 153.945 127.888C153.912 127.741 153.95 127.568 154.059 127.371L155.394 124.951L149.039 121.446C148.82 121.325 148.68 121.176 148.62 121C148.554 120.834 148.584 120.636 148.711 120.406Z"
                fill="#818888"
              />
              <path
                d="M142.868 123.737C143.018 123.537 143.186 123.428 143.372 123.41C143.547 123.385 143.735 123.448 143.936 123.598L152.929 130.344C153.13 130.494 153.243 130.657 153.268 130.832C153.303 131.015 153.249 131.202 153.106 131.393C152.956 131.593 152.788 131.702 152.602 131.72C152.419 131.755 152.228 131.697 152.027 131.547L150.598 130.475L150.933 130.468C151.384 131.057 151.598 131.711 151.576 132.43C151.556 133.167 151.298 133.867 150.801 134.529C150.313 135.18 149.732 135.63 149.06 135.878C148.391 136.144 147.673 136.193 146.906 136.025C146.141 135.875 145.368 135.506 144.586 134.92C143.814 134.341 143.244 133.701 142.875 133.002C142.509 132.32 142.351 131.622 142.401 130.908C142.452 130.193 142.725 129.505 143.221 128.843C143.717 128.182 144.308 127.739 144.992 127.516C145.686 127.301 146.378 127.318 147.068 127.569L146.932 127.749L143.022 124.816C142.821 124.666 142.712 124.498 142.695 124.313C142.667 124.12 142.725 123.928 142.868 123.737ZM144.391 129.321C144.045 129.782 143.858 130.261 143.83 130.757C143.795 131.264 143.921 131.765 144.206 132.261C144.485 132.768 144.919 133.243 145.511 133.686C146.423 134.371 147.274 134.688 148.064 134.638C148.846 134.597 149.497 134.231 150.016 133.54C150.354 133.088 150.541 132.61 150.576 132.103C150.621 131.604 150.504 131.102 150.226 130.596C149.95 130.107 149.507 129.633 148.895 129.174C147.993 128.497 147.142 128.18 146.342 128.223C145.552 128.273 144.902 128.639 144.391 129.321Z"
                fill="#818888"
              />
              <path
                d="M138.733 134.363C138.831 134.266 138.943 134.201 139.067 134.167C139.174 134.133 139.293 134.138 139.426 134.184C139.549 134.239 139.677 134.333 139.808 134.467L145.278 140.057C145.453 140.237 145.54 140.415 145.538 140.592C145.536 140.769 145.459 140.932 145.306 141.081C145.145 141.239 144.98 141.313 144.812 141.302C144.635 141.3 144.459 141.21 144.283 141.03L139.34 135.978L139.676 135.649L140.893 144.716C140.918 144.885 140.912 145.048 140.874 145.208C140.846 145.376 140.756 145.534 140.603 145.683C140.496 145.788 140.389 145.858 140.282 145.892C140.175 145.927 140.06 145.917 139.937 145.862C139.813 145.825 139.681 145.735 139.541 145.592L134.058 139.988C133.892 139.818 133.805 139.64 133.798 139.454C133.791 139.285 133.868 139.122 134.029 138.964C134.191 138.807 134.36 138.729 134.537 138.731C134.714 138.75 134.886 138.845 135.052 139.015L140.009 144.081L139.673 144.41L138.456 135.317C138.431 135.166 138.433 135.006 138.461 134.838C138.481 134.679 138.571 134.52 138.733 134.363Z"
                fill="#818888"
              />
              <path
                d="M129.635 142.444C129.826 142.301 130.018 142.244 130.211 142.273C130.404 142.301 130.575 142.416 130.725 142.617L135.058 148.438L137.26 146.799C137.642 146.515 137.956 146.539 138.203 146.87C138.316 147.021 138.351 147.174 138.311 147.33C138.277 147.495 138.17 147.645 137.989 147.78L132.349 151.978C131.977 152.255 131.671 152.232 131.432 151.91C131.312 151.75 131.269 151.586 131.302 151.421C131.333 151.273 131.438 151.132 131.619 150.997L133.836 149.347L129.504 143.526C129.354 143.325 129.288 143.132 129.306 142.946C129.315 142.768 129.424 142.601 129.635 142.444Z"
                fill="#818888"
              />
              <path
                d="M121.522 147.636C122.366 147.167 123.185 146.926 123.981 146.913C124.773 146.918 125.509 147.132 126.189 147.557C126.859 147.987 127.432 148.629 127.907 149.484C128.37 150.316 128.608 151.13 128.621 151.926C128.64 152.733 128.462 153.471 128.088 154.138C127.702 154.811 127.132 155.358 126.376 155.779C125.839 156.078 125.306 156.253 124.775 156.304C124.25 156.367 123.746 156.31 123.261 156.135C122.765 155.967 122.307 155.684 121.885 155.287C121.453 154.897 121.069 154.4 120.734 153.798C120.636 153.623 120.613 153.464 120.662 153.321C120.718 153.19 120.839 153.072 121.026 152.969L126.742 149.788L127.227 150.658L121.822 153.666L121.966 153.306C122.295 153.897 122.66 154.347 123.061 154.655C123.468 154.973 123.902 155.148 124.363 155.178C124.814 155.214 125.291 155.092 125.795 154.812C126.353 154.501 126.756 154.104 127.004 153.622C127.248 153.157 127.34 152.639 127.281 152.07C127.228 151.511 127.034 150.93 126.699 150.328L126.644 150.23C126.083 149.222 125.416 148.589 124.642 148.332C123.856 148.08 123.014 148.205 122.116 148.704C121.744 148.911 121.405 149.165 121.098 149.465C120.78 149.77 120.51 150.136 120.288 150.561C120.19 150.745 120.077 150.865 119.95 150.921C119.819 150.994 119.694 151.013 119.574 150.979C119.461 150.956 119.363 150.896 119.28 150.799C119.193 150.719 119.143 150.603 119.13 150.452C119.107 150.307 119.142 150.151 119.236 149.984C119.451 149.521 119.765 149.08 120.179 148.664C120.593 148.247 121.04 147.905 121.522 147.636Z"
                fill="#818888"
              />
              <path
                d="M110.33 149.107C110.57 149.037 110.77 149.051 110.929 149.148C111.084 149.233 111.197 149.396 111.267 149.637L114.413 160.43C114.483 160.671 114.476 160.869 114.39 161.024C114.309 161.192 114.153 161.309 113.925 161.375C113.684 161.445 113.484 161.432 113.325 161.335C113.158 161.253 113.039 161.092 112.969 160.851L112.469 159.136L112.741 159.331C112.749 160.073 112.528 160.725 112.078 161.287C111.619 161.864 110.993 162.269 110.199 162.5C109.417 162.728 108.683 162.74 107.996 162.535C107.302 162.346 106.698 161.954 106.185 161.359C105.664 160.78 105.266 160.021 104.993 159.083C104.723 158.156 104.65 157.303 104.775 156.522C104.892 155.757 105.185 155.104 105.653 154.563C106.122 154.021 106.754 153.635 107.548 153.403C108.342 153.172 109.08 153.172 109.761 153.405C110.446 153.649 110.989 154.078 111.39 154.692L111.173 154.756L109.805 150.063C109.735 149.822 109.749 149.622 109.846 149.463C109.94 149.293 110.101 149.174 110.33 149.107ZM108.197 154.487C107.643 154.649 107.206 154.919 106.886 155.3C106.555 155.684 106.354 156.16 106.285 156.729C106.203 157.301 106.266 157.942 106.473 158.651C106.792 159.746 107.282 160.511 107.944 160.945C108.594 161.382 109.334 161.48 110.164 161.238C110.705 161.08 111.142 160.809 111.474 160.425C111.81 160.053 112.018 159.581 112.099 159.009C112.172 158.453 112.102 157.807 111.888 157.073C111.572 155.99 111.082 155.226 110.416 154.78C109.755 154.346 109.015 154.249 108.197 154.487Z"
                fill="#818888"
              />
              <path
                d="M97.2407 155.514C98.198 155.392 99.0485 155.473 99.7924 155.757C100.525 156.055 101.129 156.527 101.604 157.174C102.066 157.823 102.359 158.632 102.483 159.601C102.603 160.546 102.522 161.391 102.238 162.134C101.955 162.891 101.516 163.509 100.921 163.99C100.313 164.472 99.5798 164.768 98.722 164.877C98.1128 164.955 97.5523 164.919 97.0404 164.77C96.5302 164.633 96.0825 164.393 95.6976 164.051C95.3002 163.71 94.9796 163.277 94.7356 162.752C94.4792 162.229 94.3072 161.626 94.2198 160.942C94.1944 160.743 94.2313 160.587 94.3304 160.473C94.4312 160.372 94.5873 160.307 94.7986 160.28L101.288 159.451L101.415 160.439L95.2793 161.224L95.5467 160.943C95.6325 161.614 95.8043 162.167 96.062 162.602C96.3213 163.049 96.6595 163.372 97.0767 163.571C97.4815 163.772 97.9698 163.836 98.5417 163.763C99.1757 163.682 99.6974 163.464 100.107 163.108C100.505 162.767 100.783 162.32 100.94 161.77C101.099 161.231 101.134 160.62 101.047 159.936L101.033 159.825C100.886 158.681 100.502 157.846 99.8784 157.319C99.2427 156.794 98.4151 156.596 97.3957 156.726C96.973 156.78 96.5636 156.89 96.1677 157.054C95.7593 157.22 95.3729 157.459 95.0084 157.771C94.8487 157.905 94.6996 157.975 94.5613 157.98C94.4121 157.999 94.2884 157.97 94.1903 157.894C94.0937 157.831 94.0251 157.739 93.9843 157.617C93.9327 157.51 93.9292 157.384 93.9739 157.24C94.0062 157.097 94.0967 156.965 94.2456 156.845C94.6178 156.494 95.0732 156.202 95.612 155.969C96.1508 155.736 96.6937 155.584 97.2407 155.514Z"
                fill="#818888"
              />
              <path
                d="M90.2127 156.119C90.4634 156.123 90.6566 156.195 90.7923 156.335C90.9155 156.474 90.9751 156.67 90.9713 156.92L90.8511 164.702C90.847 164.966 90.7814 165.159 90.6541 165.282C90.5141 165.418 90.3188 165.484 90.0682 165.48C89.8301 165.476 89.6494 165.405 89.5263 165.265C89.3903 165.137 89.3244 164.942 89.3285 164.679L89.3767 161.559L87.6661 161.532L84.8288 165.061C84.7012 165.209 84.5619 165.301 84.4109 165.336C84.2598 165.384 84.1219 165.382 83.9974 165.33C83.8601 165.29 83.7548 165.213 83.6813 165.099C83.5951 164.998 83.5532 164.872 83.5555 164.721C83.5579 164.571 83.6167 164.415 83.732 164.254L86.435 160.893L86.8598 161.388C86.5095 161.345 86.2038 161.253 85.9428 161.111C85.6817 160.969 85.4343 160.758 85.2004 160.479C84.9666 160.199 84.7156 159.813 84.4474 159.32L83.1285 157.062C83.0435 156.885 83.0146 156.728 83.0418 156.591C83.0565 156.453 83.1211 156.329 83.2356 156.218C83.3499 156.119 83.4825 156.059 83.6332 156.036C83.7715 156.013 83.909 156.034 84.0459 156.099C84.1828 156.164 84.3064 156.278 84.4167 156.443L85.8634 158.947C86.071 159.301 86.2673 159.574 86.4524 159.765C86.6373 159.968 86.8482 160.109 87.0851 160.188C87.3221 160.267 87.616 160.309 87.9669 160.315L89.3955 160.337L89.4486 156.897C89.4525 156.646 89.5244 156.453 89.6644 156.317C89.7919 156.181 89.9746 156.115 90.2127 156.119Z"
                fill="#818888"
              />
              <path
                d="M78.0672 155.236C78.9465 155.372 79.6784 155.682 80.2628 156.166C80.8472 156.65 81.2651 157.267 81.5166 158.016C81.7538 158.776 81.7984 159.633 81.6503 160.586C81.5388 161.305 81.3397 161.933 81.0531 162.472C80.7646 163.024 80.3966 163.474 79.9493 163.823C79.5019 164.172 79.0018 164.411 78.4489 164.541C77.8817 164.681 77.27 164.701 76.6135 164.599C75.7342 164.462 75.0023 164.152 74.4179 163.668C73.8335 163.184 73.4227 162.562 73.1855 161.802C72.934 161.053 72.8823 160.202 73.0304 159.248C73.1419 158.53 73.341 157.901 73.6276 157.362C73.9142 156.823 74.2821 156.373 74.7314 156.011C75.1788 155.662 75.6861 155.418 76.2533 155.277C76.8061 155.148 77.4108 155.134 78.0672 155.236ZM77.8797 156.443C77.3224 156.357 76.812 156.417 76.3486 156.624C75.8852 156.831 75.5017 157.177 75.198 157.663C74.8819 158.147 74.6672 158.754 74.5537 159.485C74.3788 160.612 74.499 161.512 74.9145 162.185C75.3176 162.856 75.9465 163.258 76.801 163.391C77.3707 163.48 77.8873 163.42 78.3507 163.213C78.7997 163.017 79.1823 162.676 79.4984 162.193C79.8002 161.72 80.0097 161.105 80.127 160.35C80.3 159.235 80.1798 158.335 79.7662 157.649C79.3507 156.976 78.7219 156.574 77.8797 156.443Z"
                fill="#818888"
              />
              <path
                d="M71.3123 154.008C71.5147 154.075 71.6558 154.187 71.7358 154.345C71.7999 154.512 71.7967 154.702 71.7263 154.916L69.2723 162.382C69.2175 162.548 69.1487 162.677 69.0658 162.769C68.979 162.872 68.8782 162.938 68.7634 162.966C68.6486 162.995 68.5197 162.985 68.3769 162.938C68.234 162.891 68.1228 162.828 68.0432 162.749C67.9596 162.682 67.8959 162.595 67.8518 162.489C67.8039 162.394 67.7737 162.285 67.7613 162.162L66.504 155.752L61.6889 160.166C61.6061 160.257 61.5172 160.327 61.4223 160.375C61.3234 160.435 61.2205 160.467 61.1135 160.472C61.0026 160.488 60.8817 160.475 60.7507 160.431C60.5364 160.361 60.3972 160.243 60.3331 160.077C60.2651 159.922 60.2741 159.714 60.3602 159.452L62.8142 151.987C62.8846 151.772 62.995 151.617 63.1452 151.522C63.2915 151.438 63.4718 151.431 63.6861 151.502C63.8885 151.568 64.0297 151.68 64.1096 151.839C64.1737 152.005 64.1706 152.195 64.1001 152.409L61.9808 158.857L61.57 158.722L66.3852 154.368C66.4642 154.288 66.5571 154.226 66.6639 154.182C66.7668 154.15 66.8838 154.156 67.0147 154.199C67.1576 154.246 67.259 154.319 67.3188 154.417C67.3668 154.512 67.4068 154.611 67.439 154.714L68.7318 161.076L68.321 160.941L70.4403 154.494C70.5108 154.279 70.6271 154.126 70.7892 154.034C70.9355 153.951 71.1099 153.942 71.3123 154.008Z"
                fill="#818888"
              />
              <path
                d="M56.9814 148.287C57.8382 148.731 58.4916 149.282 58.9417 149.939C59.3749 150.601 59.6025 151.333 59.6244 152.135C59.6352 152.931 59.4157 153.763 58.9658 154.631C58.5275 155.477 57.9799 156.124 57.3231 156.574C56.6605 157.036 55.9476 157.294 55.1844 157.351C54.4101 157.401 53.639 157.227 52.8712 156.829C52.326 156.547 51.8854 156.198 51.5495 155.784C51.2078 155.381 50.9762 154.929 50.8545 154.429C50.7218 153.922 50.7044 153.384 50.8024 152.813C50.8893 152.237 51.0913 151.643 51.4086 151.031C51.5009 150.853 51.6201 150.746 51.7664 150.708C51.9069 150.682 52.0718 150.719 52.261 150.817L58.0694 153.827L57.6109 154.712L52.1195 151.866L52.4991 151.787C52.1876 152.388 52.0142 152.94 51.9788 153.444C51.9377 153.959 52.0319 154.418 52.2615 154.819C52.4799 155.215 52.8451 155.545 53.357 155.81C53.9245 156.105 54.4777 156.222 55.0167 156.162C55.5388 156.108 56.0212 155.9 56.4637 155.536C56.9005 155.184 57.2775 154.702 57.5947 154.09L57.6466 153.989C58.1773 152.966 58.3362 152.06 58.1235 151.272C57.8996 150.478 57.3314 149.845 56.419 149.372C56.0407 149.176 55.6419 149.033 55.2228 148.943C54.7926 148.847 54.3389 148.823 53.8617 148.872C53.654 148.892 53.4918 148.864 53.3752 148.79C53.2417 148.72 53.1561 148.627 53.1186 148.508C53.0753 148.401 53.0714 148.286 53.1068 148.163C53.1254 148.046 53.1942 147.94 53.3132 147.847C53.4212 147.748 53.5706 147.691 53.7614 147.677C54.267 147.6 54.8077 147.619 55.3834 147.734C55.9591 147.849 56.4918 148.033 56.9814 148.287Z"
                fill="#818888"
              />
              <path
                d="M51.1595 145.015C51.3617 145.163 51.4776 145.334 51.5073 145.526C51.5268 145.712 51.4625 145.905 51.3143 146.108L46.6796 152.43C46.524 152.643 46.3586 152.762 46.1834 152.789C45.9981 152.809 45.8044 152.745 45.6022 152.596C45.4102 152.456 45.3006 152.298 45.2736 152.122C45.2366 151.94 45.2958 151.742 45.4514 151.53L47.3186 148.983L43.3005 146.037L41.4333 148.585C41.2777 148.797 41.1123 148.917 40.9371 148.944C40.7518 148.963 40.5632 148.903 40.3711 148.762C40.179 148.621 40.0645 148.459 40.0274 148.277C39.9903 148.094 40.0495 147.897 40.2051 147.685L44.8399 141.362C44.9881 141.16 45.1585 141.044 45.3512 141.014C45.5439 140.984 45.7363 141.04 45.9284 141.181C46.1204 141.321 46.2313 141.488 46.261 141.681C46.2806 141.866 46.2163 142.06 46.0681 142.262L44.0341 145.037L48.0522 147.982L50.0862 145.207C50.2344 145.005 50.3998 144.885 50.5823 144.848C50.7649 144.811 50.9573 144.867 51.1595 145.015Z"
                fill="#818888"
              />
              <path
                d="M44.9919 137.34C45.1414 137.492 45.2112 137.652 45.2011 137.82C45.191 137.989 45.1056 138.152 44.9449 138.31L43.2846 139.947C42.9275 140.299 42.5731 140.296 42.2211 139.939L41.5877 139.296L42.4488 139.715C41.8899 139.79 41.3526 139.942 40.8369 140.168C40.3035 140.395 39.7651 140.706 39.2216 141.1C38.6781 141.495 38.1028 141.992 37.4958 142.59L36.197 143.87C35.9917 144.073 35.7872 144.169 35.5834 144.158C35.3707 144.157 35.1676 144.058 34.974 143.861L31.6485 140.487C31.4461 140.282 31.3501 140.077 31.3605 139.873C31.3531 139.67 31.452 139.466 31.6573 139.264L37.174 133.827L37.1668 134.811L36.1903 133.82C36.0231 133.65 35.9402 133.477 35.9415 133.3C35.934 133.113 36.0195 132.932 36.198 132.756L37.8583 131.12C38.1975 130.786 38.5211 130.775 38.829 131.087C38.9786 131.239 39.0483 131.399 39.0382 131.567C39.0282 131.736 38.9428 131.899 38.7821 132.057L37.4565 133.364L42.7088 138.693L44.0344 137.386C44.3736 137.052 44.6928 137.037 44.9919 137.34ZM41.0466 138.747L37.6947 135.346L32.9145 140.058L35.4879 142.669L36.7331 141.441C37.4026 140.781 38.1158 140.211 38.8726 139.729C39.6205 139.255 40.3452 138.928 41.0466 138.747Z"
                fill="#818888"
              />
              <path
                d="M33.7644 128.444C34.1312 128.952 34.3647 129.479 34.4651 130.025C34.5479 130.568 34.501 131.081 34.3242 131.564C34.1474 132.047 33.8455 132.443 33.4187 132.751C32.87 133.147 32.339 133.322 31.8259 133.275C31.3055 133.218 30.7482 132.917 30.1539 132.372C29.5523 131.817 28.8481 130.98 28.0411 129.862L27.546 129.176L28.3539 128.593L28.838 129.264C29.4322 130.087 29.9424 130.708 30.3684 131.127C30.777 131.543 31.1424 131.782 31.4647 131.843C31.7797 131.894 32.1049 131.798 32.4402 131.556C32.8569 131.255 33.0946 130.867 33.1534 130.392C33.2049 129.907 33.0509 129.415 32.6915 128.917C32.3981 128.51 32.0448 128.224 31.6316 128.059C31.2111 127.883 30.7709 127.83 30.3108 127.899C29.8434 127.959 29.3912 128.146 28.9542 128.461L27.2165 129.716C26.5864 130.171 26.2259 130.624 26.1349 131.076C26.0337 131.536 26.1922 132.055 26.6104 132.634C26.8671 132.99 27.1696 133.313 27.5178 133.602C27.866 133.892 28.2848 134.162 28.7741 134.411C28.948 134.502 29.0614 134.606 29.1144 134.722C29.1573 134.846 29.1601 134.967 29.1228 135.087C29.0855 135.207 29.0197 135.308 28.9254 135.392C28.821 135.483 28.6996 135.539 28.5613 135.562C28.4157 135.574 28.2684 135.541 28.1194 135.463C27.573 135.178 27.0913 134.853 26.6743 134.489C26.2572 134.126 25.9056 133.746 25.6195 133.349C25.1574 132.709 24.8826 132.104 24.7953 131.533C24.6978 130.97 24.7891 130.432 25.0692 129.921C25.3391 129.417 25.8044 128.927 26.4649 128.45L30.5959 125.468C30.7991 125.321 30.9933 125.258 31.1785 125.279C31.3563 125.29 31.5112 125.387 31.6433 125.57C31.7826 125.763 31.8331 125.95 31.7947 126.133C31.7562 126.315 31.6354 126.48 31.4322 126.626L30.2432 127.485L30.1441 127.347C30.589 127.15 31.033 127.069 31.4761 127.105C31.9118 127.13 32.327 127.256 32.7215 127.481C33.116 127.706 33.4636 128.027 33.7644 128.444Z"
                fill="#818888"
              />
              <path
                d="M27.9646 113.865C28.0612 114.055 28.0793 114.228 28.0188 114.386C27.9694 114.537 27.8442 114.664 27.6431 114.767L25.9677 115.619L29.1912 121.953C29.3049 122.176 29.3316 122.38 29.2713 122.566C29.211 122.751 29.0691 122.901 28.8457 123.014L21.9763 126.511C21.7418 126.63 21.5402 126.663 21.3717 126.608C21.1974 126.542 21.0535 126.397 20.9398 126.174C20.8317 125.961 20.8051 125.771 20.86 125.602C20.9092 125.423 21.051 125.273 21.2856 125.154L27.7696 121.853L25.6291 117.648L19.1451 120.948C18.9105 121.068 18.709 121.1 18.5404 121.045C18.3662 120.979 18.2222 120.834 18.1085 120.611C18.0005 120.399 17.9739 120.208 18.0287 120.04C18.0779 119.86 18.2198 119.711 18.4543 119.591L25.575 115.967L25.2539 116.911L24.6313 115.688C24.5176 115.464 24.4882 115.268 24.543 115.1C24.5922 114.92 24.7285 114.773 24.9519 114.66L27.0462 113.594C27.4595 113.383 27.7656 113.474 27.9646 113.865Z"
                fill="#818888"
              />
              <path
                d="M24.611 111.95C24.6536 112.081 24.6625 112.21 24.6377 112.337C24.621 112.448 24.5627 112.552 24.4628 112.651C24.3591 112.737 24.2178 112.809 24.039 112.867L16.6001 115.282C16.3617 115.359 16.1635 115.357 16.0056 115.277C15.8477 115.196 15.7359 115.055 15.6701 114.852C15.6005 114.637 15.6078 114.457 15.6922 114.311C15.7728 114.153 15.9322 114.036 16.1707 113.958L22.8942 111.776L23.0393 112.223L14.3766 109.283C14.2145 109.23 14.0705 109.152 13.9445 109.048C13.8065 108.947 13.7047 108.796 13.6389 108.593C13.5925 108.45 13.5777 108.323 13.5944 108.213C13.6111 108.102 13.6714 108.003 13.7751 107.917C13.863 107.822 14.0024 107.744 14.1931 107.682L21.6499 105.262C21.8764 105.189 22.0745 105.19 22.2443 105.267C22.3984 105.335 22.5102 105.477 22.5799 105.692C22.6495 105.906 22.6441 106.092 22.5635 106.25C22.4672 106.4 22.3058 106.512 22.0793 106.585L15.3378 108.773L15.1928 108.326L23.8792 111.279C24.0254 111.323 24.1676 111.396 24.3055 111.496C24.4395 111.584 24.5414 111.736 24.611 111.95Z"
                fill="#818888"
              />
              <path
                d="M21.7558 102.306C21.7785 102.442 21.7682 102.571 21.725 102.693C21.6921 102.8 21.619 102.895 21.5057 102.977C21.3903 103.047 21.2399 103.098 21.0545 103.129L13.3406 104.417C13.0933 104.458 12.8976 104.428 12.7533 104.325C12.609 104.222 12.5193 104.065 12.4842 103.855C12.4471 103.632 12.481 103.455 12.586 103.323C12.689 103.179 12.8641 103.086 13.1114 103.045L20.0836 101.88L20.161 102.344L12.0278 98.1559C11.8753 98.0797 11.7444 97.9809 11.6352 97.8594C11.5136 97.7399 11.4352 97.5751 11.4001 97.3649C11.3753 97.2166 11.3794 97.0888 11.4123 96.9817C11.4453 96.8745 11.5194 96.7859 11.6348 96.7158C11.7357 96.6354 11.8851 96.5787 12.0829 96.5456L19.8153 95.254C20.0502 95.2147 20.246 95.2456 20.4026 95.3465C20.5448 95.4371 20.6345 95.5937 20.6717 95.8162C20.7088 96.0387 20.6759 96.2221 20.573 96.3664C20.4556 96.5003 20.2794 96.5869 20.0445 96.6262L13.0538 97.7939L12.9764 97.3304L21.1312 101.534C21.2692 101.6 21.3991 101.692 21.5207 101.812C21.6402 101.919 21.7186 102.084 21.7558 102.306Z"
                fill="#818888"
              />
              <path
                d="M20.3933 84.42C20.3487 85.3087 20.116 86.0688 19.6953 86.7002C19.2746 87.3317 18.7046 87.8113 17.9854 88.1391C17.2543 88.4538 16.4068 88.5869 15.443 88.5385C14.7169 88.5021 14.0711 88.3692 13.5053 88.1401C12.927 87.9102 12.4411 87.5909 12.0475 87.1822C11.6539 86.7734 11.3639 86.3008 11.1775 85.7643C10.9792 85.2148 10.8967 84.6083 10.93 83.9448C10.9747 83.0561 11.2073 82.296 11.6281 81.6646C12.0488 81.0331 12.6247 80.5601 13.3558 80.2454C14.075 79.9176 14.9165 79.7779 15.8804 79.8263C16.6064 79.8627 17.2523 79.9956 17.818 80.2248C18.3838 80.4539 18.8697 80.7732 19.2758 81.1827C19.6694 81.5914 19.9654 82.0706 20.1637 82.6202C20.3501 83.1566 20.4266 83.7565 20.3933 84.42ZM19.1729 84.3587C19.2011 83.7954 19.0883 83.294 18.8342 82.8546C18.5802 82.4152 18.196 82.0696 17.6816 81.8179C17.1678 81.5537 16.5416 81.403 15.8031 81.366C14.664 81.3088 13.7811 81.5217 13.1545 82.0047C12.5285 82.4753 12.1939 83.1424 12.1505 84.0061C12.1216 84.5819 12.2341 85.0895 12.4882 85.529C12.7303 85.9552 13.1083 86.3005 13.6221 86.5647C14.124 86.8158 14.7567 86.9605 15.5203 86.9989C16.6469 87.0554 17.5297 86.8425 18.1688 86.3601C18.7954 85.877 19.1301 85.2099 19.1729 84.3587Z"
                fill="#818888"
              />
              <path
                d="M21.3769 75.4314C21.3331 75.6655 21.2309 75.8377 21.07 75.9479C20.9092 76.0581 20.7056 76.0902 20.4592 76.0442L13.3257 74.7118L12.8218 77.4099C12.7343 77.8781 12.4873 78.0742 12.0807 77.9983C11.8959 77.9638 11.7658 77.8757 11.6902 77.7341C11.6023 77.5902 11.5791 77.4073 11.6205 77.1856L12.9115 70.2739C12.9966 69.8181 13.2363 69.6269 13.6306 69.7006C13.8277 69.7374 13.9702 69.8278 14.0581 69.9717C14.1359 70.101 14.1541 70.2765 14.1127 70.4983L13.6053 73.2149L20.7387 74.5473C20.9852 74.5933 21.1646 74.6905 21.2771 74.8391C21.3919 74.9753 21.4252 75.1727 21.3769 75.4314Z"
                fill="#818888"
              />
              <path
                d="M23.9859 65.1157C23.89 65.3473 23.752 65.5004 23.5718 65.575C23.3965 65.6381 23.193 65.6216 22.9614 65.5257L15.7185 62.5258C15.4754 62.4251 15.3199 62.2928 15.252 62.1291C15.189 61.9538 15.2054 61.7503 15.3013 61.5187C15.3925 61.2987 15.5199 61.1548 15.6837 61.0869C15.8522 61.0075 16.0581 61.0182 16.3012 61.1189L19.2192 62.3275L21.1257 57.7247L18.2076 56.5161C17.9645 56.4154 17.809 56.2831 17.7411 56.1194C17.6781 55.944 17.6921 55.7464 17.7833 55.5264C17.8744 55.3064 18.0042 55.1566 18.1728 55.0772C18.3413 54.9978 18.5472 55.0085 18.7904 55.1092L26.0333 58.1091C26.2649 58.205 26.418 58.343 26.4926 58.5231C26.5672 58.7033 26.559 58.9033 26.4678 59.1234C26.3767 59.3434 26.2411 59.4907 26.0609 59.5653C25.8856 59.6283 25.6822 59.6119 25.4506 59.516L22.272 58.1995L20.3656 62.8023L23.5442 64.1188C23.7757 64.2147 23.9312 64.3469 24.0107 64.5155C24.0901 64.684 24.0818 64.8841 23.9859 65.1157Z"
                fill="#818888"
              />
              <path
                d="M29.6518 53.1944C29.3251 53.7292 28.9295 54.1484 28.465 54.4521C27.9963 54.7386 27.505 54.8938 26.9911 54.9177C26.4772 54.9416 25.9956 54.8164 25.5463 54.542C24.9687 54.1892 24.6024 53.7672 24.4472 53.2759C24.2985 52.7739 24.3604 52.1435 24.6329 51.3847C24.912 50.6152 25.4108 49.6422 26.1294 48.4656L26.5704 47.7436L27.4207 48.263L26.9896 48.9689C26.4604 49.8353 26.0851 50.546 25.8636 51.101C25.638 51.6387 25.5594 52.068 25.6278 52.3888C25.7027 52.6989 25.9167 52.9618 26.2696 53.1774C26.7082 53.4452 27.158 53.5143 27.619 53.3847C28.0865 53.2444 28.4804 52.9121 28.8005 52.388C29.0618 51.9602 29.1888 51.5238 29.1816 51.0787C29.1809 50.623 29.0596 50.1965 28.8176 49.7991C28.5823 49.391 28.2346 49.0464 27.7747 48.7655L25.9456 47.6484C25.2825 47.2434 24.7248 47.0864 24.2727 47.1774C23.8099 47.2619 23.3923 47.609 23.02 48.2186C22.7913 48.593 22.6108 48.9968 22.4784 49.4299C22.346 49.8631 22.2594 50.3536 22.2185 50.9014C22.202 51.0968 22.1503 51.2415 22.0636 51.3354C21.9662 51.4228 21.8551 51.4724 21.7303 51.4843C21.6055 51.4963 21.4864 51.4749 21.3729 51.4203C21.2487 51.3591 21.1495 51.2691 21.0752 51.1503C21.0074 51.0208 20.9807 50.8723 20.9949 50.7047C21.047 50.0904 21.16 49.5206 21.334 48.9953C21.5079 48.47 21.7223 47.9988 21.9771 47.5817C22.3887 46.9078 22.8407 46.4202 23.3331 46.1189C23.8149 45.811 24.3457 45.6873 24.9256 45.7477C25.4948 45.8017 26.127 46.0409 26.8223 46.4656L31.1703 49.1212C31.3842 49.2518 31.5173 49.4066 31.5696 49.5854C31.6285 49.7535 31.5991 49.9338 31.4815 50.1264C31.3574 50.3296 31.2039 50.4488 31.0209 50.4839C30.8379 50.519 30.6394 50.4712 30.4255 50.3405L29.1741 49.5762L29.2623 49.4318C29.6165 49.7656 29.8628 50.1437 30.0014 50.5661C30.1464 50.9778 30.1914 51.4091 30.1363 51.8601C30.0811 52.3111 29.9196 52.7558 29.6518 53.1944Z"
                fill="#818888"
              />
              <path
                d="M33.7841 46.2947C33.6167 46.4813 33.4357 46.5799 33.241 46.5906C33.0464 46.6012 32.8557 46.5228 32.6691 46.3555L26.9298 41.2102C26.7338 41.0345 26.631 40.8581 26.6214 40.6811C26.6117 40.5042 26.6864 40.327 26.8453 40.1497C27.0043 39.9724 27.1723 39.8789 27.3493 39.8693C27.5262 39.8596 27.7127 39.9426 27.9087 40.1183L33.326 44.975L35.8735 42.1334L30.4563 37.2767C30.2603 37.101 30.1575 36.9247 30.1478 36.7477C30.1382 36.5707 30.2128 36.3935 30.3718 36.2162C30.5224 36.0482 30.6861 35.9594 30.8631 35.9498C31.0401 35.9401 31.2266 36.0231 31.4226 36.1988L36.8399 41.0555L39.3874 38.2139L33.9701 33.3572C33.7742 33.1815 33.6713 33.0052 33.6617 32.8282C33.6604 32.6419 33.7351 32.4647 33.8856 32.2967C34.0446 32.1194 34.2126 32.026 34.3896 32.0163C34.5666 32.0066 34.753 32.0897 34.949 32.2654L40.6882 37.4107C40.8749 37.578 40.9735 37.759 40.9841 37.9537C40.9948 38.1484 40.9164 38.339 40.7491 38.5257L33.7841 46.2947Z"
                fill="#818888"
              />
              <path
                d="M43.9323 35.8805C43.8235 35.9653 43.7054 36.0176 43.5779 36.0374C43.468 36.0595 43.3498 36.0403 43.2234 35.98C43.1068 35.9119 42.9907 35.8037 42.8752 35.6554L38.0695 29.4853C37.9154 29.2876 37.8494 29.1007 37.8712 28.9248C37.8931 28.7489 37.9881 28.5955 38.1562 28.4646C38.3341 28.326 38.5061 28.2714 38.6721 28.301C38.848 28.3229 39.013 28.4327 39.167 28.6304L43.5107 34.2072L43.1399 34.496L42.9506 25.3499C42.945 25.1795 42.9696 25.0174 43.0244 24.8634C43.0716 24.6996 43.1792 24.5522 43.3473 24.4213C43.466 24.3289 43.5802 24.2716 43.6902 24.2496C43.8001 24.2275 43.9133 24.2505 44.0299 24.3186C44.1486 24.3691 44.2696 24.4734 44.3928 24.6316L49.2101 30.8165C49.3565 31.0044 49.4226 31.1912 49.4084 31.377C49.3964 31.5452 49.3014 31.6986 49.1235 31.8372C48.9455 31.9759 48.7685 32.0343 48.5926 32.0124C48.4189 31.9729 48.2589 31.8593 48.1126 31.6714L43.7574 26.0798L44.1282 25.791L44.3142 34.9635C44.322 35.1163 44.3023 35.2746 44.2552 35.4384C44.2179 35.5945 44.1103 35.7419 43.9323 35.8805Z"
                fill="#818888"
              />
              <path
                d="M51.7836 29.9704C51.6415 30.0502 51.4913 30.077 51.3329 30.0509C51.1746 30.0248 51.05 29.9438 50.9594 29.8079C50.8735 29.6549 50.8556 29.4565 50.9056 29.2128L51.7502 23.9958L52.1366 24.6843L47.5616 22.8327C47.3214 22.7376 47.1614 22.619 47.0816 22.4769C47.0128 22.3287 47.0085 22.1802 47.0687 22.0314C47.129 21.8826 47.2301 21.7683 47.3722 21.6886C47.5361 21.5966 47.6911 21.5527 47.8372 21.5569C47.9881 21.5441 48.1496 21.5756 48.3216 21.6516L52.3315 23.303L51.8724 23.5607L52.5676 19.2683C52.5924 19.0819 52.644 18.9307 52.7227 18.8147C52.7952 18.6878 52.9134 18.5783 53.0773 18.4863C53.2303 18.4004 53.3805 18.3736 53.528 18.4058C53.6864 18.4319 53.8085 18.5215 53.8944 18.6745C53.985 18.8104 54.0084 19.0057 53.9645 19.2603L53.1511 24.0718L52.8106 23.4652L57.6764 25.4124C57.8995 25.5027 58.0486 25.6275 58.1236 25.7866C58.2033 25.9287 58.2131 26.0741 58.1529 26.2229C58.0926 26.3717 57.986 26.489 57.833 26.5749C57.68 26.6608 57.525 26.7047 57.368 26.7066C57.228 26.7133 57.0665 26.6817 56.8836 26.6119L52.5738 24.8486L53.0492 24.5817L52.3097 29.1793C52.2788 29.3547 52.2217 29.509 52.1383 29.642C52.0658 29.7689 51.9476 29.8784 51.7836 29.9704Z"
                fill="#818888"
              />
              <path
                d="M68.5518 22.3825C67.6805 22.6616 66.8674 22.7115 66.1124 22.5323C65.3574 22.353 64.6979 21.9786 64.1338 21.4092C63.5778 20.824 63.1545 20.0778 62.8639 19.1707C62.6421 18.4784 62.5387 17.8272 62.5538 17.217C62.5689 16.6067 62.7002 16.0514 62.9479 15.5509C63.1917 15.0385 63.5377 14.5986 63.986 14.2312C64.4461 13.8601 65.0045 13.5694 65.6609 13.359C66.0906 13.2214 66.5592 13.1436 67.0668 13.1258C67.5743 13.1079 68.0707 13.199 68.5559 13.3989C68.702 13.4442 68.8121 13.5208 68.8862 13.6287C68.9602 13.7366 68.9984 13.8559 69.0009 13.9867C68.9995 14.1056 68.9704 14.2202 68.9136 14.3306C68.853 14.4289 68.759 14.5051 68.6315 14.5591C68.516 14.6093 68.3773 14.6077 68.2154 14.5543C67.8286 14.415 67.4587 14.3492 67.1059 14.357C66.753 14.3647 66.4274 14.4164 66.129 14.512C65.6635 14.6611 65.2825 14.8687 64.9861 15.1348C64.6859 15.3889 64.4604 15.6915 64.3096 16.0425C64.1588 16.3935 64.0828 16.7929 64.0815 17.2408C64.0922 17.6848 64.1836 18.1754 64.3556 18.7125C64.6883 19.7509 65.1968 20.4961 65.8812 20.9481C66.5618 21.3881 67.3556 21.4628 68.2627 21.1721C68.5611 21.0765 68.8502 20.9313 69.1299 20.7364C69.4216 20.5377 69.6903 20.2673 69.9361 19.9253C70.0368 19.7878 70.1488 19.7059 70.272 19.6796C70.3951 19.6533 70.5119 19.6685 70.6222 19.7253C70.7287 19.7701 70.813 19.8484 70.8751 19.9601C70.9492 20.068 70.9874 20.1874 70.9898 20.3182C70.9884 20.4371 70.9415 20.5574 70.8489 20.6792C70.5663 21.1119 70.2212 21.4725 69.8136 21.7611C69.4021 22.0377 68.9815 22.2448 68.5518 22.3825Z"
                fill="#818888"
              />
              <path
                d="M73.1138 21.0298C72.867 21.0739 72.6636 21.0403 72.5037 20.9289C72.356 20.8152 72.2601 20.635 72.216 20.3883L70.8753 12.8932C70.8246 12.6095 70.8611 12.3865 70.9848 12.2243C71.1064 12.0498 71.3029 11.9382 71.5743 11.8897L77.7184 10.7907C77.9898 10.7421 78.2128 10.7786 78.3874 10.9002C78.5597 11.0094 78.6712 11.2059 78.722 11.4897L80.0626 18.9847C80.1068 19.2315 80.0731 19.4348 79.9617 19.5948C79.8502 19.7548 79.6773 19.8558 79.4429 19.8977C79.2085 19.9396 79.0113 19.9049 78.8513 19.7934C78.7037 19.6798 78.6078 19.4996 78.5636 19.2529L77.2859 12.1094L72.4372 12.9767L73.715 20.1201C73.7591 20.3669 73.7316 20.5692 73.6325 20.7269C73.5334 20.8847 73.3605 20.9857 73.1138 21.0298Z"
                fill="#818888"
              />
              <path
                d="M86.8858 19.4093C85.9211 19.4353 85.0828 19.2699 84.3711 18.913C83.6715 18.5432 83.118 18.0128 82.7107 17.3217C82.3158 16.6302 82.1052 15.7959 82.0788 14.8186C82.0531 13.8665 82.2187 13.0345 82.5756 12.3227C82.9321 11.5984 83.4307 11.027 84.0714 10.6085C84.7246 10.1896 85.4834 9.96849 86.3479 9.94513C86.9618 9.92854 87.516 10.0201 88.0103 10.2199C88.5044 10.4072 88.9258 10.6904 89.2746 11.0697C89.6359 11.4486 89.9117 11.9113 90.102 12.4578C90.3048 13.004 90.4155 13.6217 90.4341 14.3107C90.4396 14.5112 90.3872 14.6631 90.2772 14.7663C90.1668 14.8571 90.0051 14.9053 89.7921 14.9111L83.2521 15.0878L83.2252 14.0918L89.4081 13.9247L89.114 14.1771C89.0958 13.5006 88.9801 12.9332 88.7671 12.4751C88.5538 12.0044 88.2496 11.649 87.8544 11.409C87.4718 11.1685 86.9923 11.0561 86.416 11.0717C85.777 11.089 85.2361 11.254 84.7932 11.5669C84.3624 11.8669 84.0414 12.2831 83.8301 12.8154C83.6185 13.3352 83.522 13.9396 83.5406 14.6287L83.5437 14.7414C83.5748 15.8941 83.8741 16.7636 84.4417 17.3501C85.0217 17.9363 85.8254 18.2155 86.8528 18.1877C87.2787 18.1762 87.6969 18.1085 88.1073 17.9845C88.5303 17.8603 88.9386 17.6612 89.3324 17.3872C89.5048 17.2697 89.6601 17.2154 89.7982 17.2242C89.9486 17.2201 90.0688 17.2607 90.1588 17.3461C90.2486 17.4189 90.3077 17.5176 90.3361 17.6422C90.3767 17.7539 90.3676 17.8796 90.3087 18.0191C90.2623 18.1582 90.159 18.2802 89.9988 18.3848C89.5935 18.6966 89.1112 18.9416 88.5518 19.1197C87.9924 19.2979 87.437 19.3944 86.8858 19.4093Z"
                fill="#818888"
              />
              <path
                d="M100.937 22.8205C100.726 22.7935 100.572 22.7106 100.476 22.572C100.378 22.4458 100.344 22.2708 100.372 22.047L100.611 20.1822L93.5619 19.281C93.3132 19.2492 93.1293 19.1562 93.01 19.002C92.8907 18.8477 92.847 18.6463 92.8788 18.3977L93.8563 10.7519C93.8897 10.4908 93.9765 10.3061 94.1167 10.1976C94.2693 10.0908 94.47 10.0533 94.7186 10.0851C94.9548 10.1153 95.1271 10.2005 95.2356 10.3407C95.3564 10.4825 95.4002 10.6839 95.3668 10.945L94.4441 18.1619L99.1248 18.7603L100.047 11.5434C100.081 11.2824 100.168 11.0976 100.308 10.9892C100.461 10.8823 100.661 10.8448 100.91 10.8766C101.146 10.9068 101.318 10.992 101.427 11.1322C101.548 11.274 101.591 11.4755 101.558 11.7365L100.545 19.662L99.9453 18.8652L101.307 19.0392C101.555 19.071 101.734 19.157 101.842 19.2972C101.963 19.439 102.008 19.6343 101.976 19.8829L101.678 22.2139C101.619 22.6739 101.372 22.8761 100.937 22.8205Z"
                fill="#818888"
              />
              <path
                d="M104.557 21.1226C104.424 21.084 104.313 21.0188 104.222 20.9271C104.14 20.8509 104.086 20.7439 104.061 20.606C104.048 20.4717 104.068 20.3143 104.12 20.1338L106.308 12.6253C106.379 12.3847 106.491 12.2217 106.647 12.1365C106.802 12.0512 106.982 12.0384 107.187 12.098C107.403 12.1611 107.548 12.2686 107.621 12.4205C107.707 12.5759 107.714 12.7739 107.644 13.0146L105.666 19.8011L105.215 19.6695L112.519 14.1611C112.654 14.0568 112.8 13.9818 112.956 13.9362C113.117 13.8785 113.299 13.8795 113.504 13.9391C113.648 13.9812 113.762 14.0403 113.844 14.1165C113.926 14.1927 113.974 14.2979 113.987 14.4323C114.015 14.5581 114.002 14.7173 113.946 14.9098L111.752 22.4363C111.685 22.6649 111.573 22.8279 111.414 22.9252C111.27 23.0139 111.09 23.0268 110.874 22.9636C110.657 22.9005 110.506 22.7912 110.421 22.6359C110.351 22.4719 110.35 22.2757 110.416 22.047L112.399 15.2425L112.851 15.374L105.524 20.8952C105.404 20.991 105.264 21.0678 105.104 21.1254C104.956 21.1866 104.773 21.1857 104.557 21.1226Z"
                fill="#818888"
              />
              <path
                d="M115.874 25.0111C115.304 24.7499 114.841 24.4065 114.485 23.9811C114.145 23.5495 113.933 23.08 113.849 22.5724C113.764 22.0649 113.832 21.5719 114.051 21.0935C114.333 20.4783 114.709 20.0646 115.179 19.8525C115.66 19.6456 116.293 19.6327 117.078 19.8137C117.876 20 118.901 20.3805 120.154 20.9551L120.923 21.3078L120.507 22.2135L119.756 21.8687C118.833 21.4455 118.083 21.1567 117.505 21.0023C116.945 20.8417 116.509 20.8143 116.199 20.9201C115.9 21.0312 115.664 21.2747 115.492 21.6506C115.277 22.1177 115.262 22.5725 115.445 23.015C115.64 23.4627 116.016 23.8146 116.574 24.0706C117.03 24.2795 117.478 24.3542 117.919 24.2944C118.372 24.2399 118.781 24.0691 119.147 23.782C119.524 23.5001 119.826 23.1142 120.05 22.6243L120.944 20.6762C121.268 19.9698 121.358 19.3976 121.214 18.9593C121.075 18.5097 120.681 18.136 120.032 17.8383C119.633 17.6554 119.211 17.5238 118.765 17.4435C118.319 17.3632 117.822 17.3351 117.273 17.3592C117.077 17.3658 116.928 17.3315 116.824 17.2565C116.726 17.1701 116.663 17.0656 116.637 16.9432C116.61 16.8207 116.617 16.6998 116.658 16.5807C116.704 16.4502 116.782 16.341 116.891 16.2532C117.012 16.1706 117.156 16.1265 117.324 16.1208C117.94 16.1001 118.52 16.145 119.062 16.2558C119.604 16.3665 120.097 16.5237 120.541 16.7275C121.259 17.0566 121.797 17.4479 122.154 17.9014C122.517 18.3434 122.702 18.8559 122.711 19.4389C122.724 20.0105 122.561 20.6665 122.222 21.407L120.098 26.0381C119.993 26.266 119.855 26.4164 119.684 26.4895C119.524 26.5678 119.342 26.5599 119.137 26.4659C118.92 26.3666 118.784 26.2282 118.727 26.0506C118.671 25.8731 118.695 25.6704 118.799 25.4425L119.41 24.1096L119.564 24.1801C119.275 24.5712 118.928 24.8605 118.525 25.048C118.133 25.2406 117.71 25.3362 117.256 25.3347C116.802 25.3332 116.341 25.2253 115.874 25.0111Z"
                fill="#818888"
              />
              <path
                d="M128.649 32.1861C128.45 32.0553 128.331 31.8945 128.291 31.7035C128.262 31.5195 128.317 31.3227 128.454 31.1132L132.439 25.0485L129.36 23.025L128.72 23.9992C128.183 24.8162 127.666 25.5114 127.169 26.0848C126.69 26.6546 126.218 27.1097 125.755 27.4499C125.291 27.7902 124.818 28.0193 124.336 28.1373C123.864 28.2621 123.355 28.295 122.809 28.2361C122.631 28.2095 122.49 28.1392 122.385 28.0251C122.273 27.9216 122.199 27.8056 122.164 27.6773C122.146 27.5453 122.159 27.4114 122.203 27.2755C122.258 27.1465 122.349 27.0416 122.477 26.9608C122.605 26.88 122.761 26.8477 122.946 26.8638C123.36 26.8958 123.743 26.8481 124.097 26.7206C124.461 26.6 124.825 26.389 125.188 26.0876C125.551 25.7862 125.919 25.3979 126.291 24.9227C126.68 24.4438 127.102 23.8587 127.557 23.1674L128.362 21.9419C128.52 21.701 128.7 21.5642 128.901 21.5316C129.11 21.4885 129.329 21.5426 129.559 21.6941L133.66 24.3886C133.891 24.54 134.027 24.7198 134.071 24.9281C134.121 25.1259 134.066 25.3453 133.908 25.5862L129.727 31.9495C129.589 32.1589 129.425 32.2834 129.234 32.323C129.054 32.3694 128.859 32.3237 128.649 32.1861Z"
                fill="#818888"
              />
              <path
                d="M131.56 34.3856C131.457 34.2939 131.384 34.1872 131.341 34.0654C131.3 33.9613 131.297 33.8416 131.334 33.7063C131.38 33.5793 131.465 33.4456 131.59 33.3052L136.79 27.463C136.956 27.2758 137.128 27.177 137.305 27.1667C137.482 27.1564 137.65 27.2221 137.809 27.3637C137.978 27.5137 138.062 27.673 138.063 27.8416C138.074 28.0186 137.995 28.2007 137.829 28.3879L133.129 33.6683L132.778 33.3559L141.739 31.5159C141.906 31.4796 142.07 31.4745 142.231 31.5006C142.401 31.5174 142.565 31.5966 142.724 31.7382C142.837 31.8382 142.914 31.9403 142.955 32.0444C142.997 32.1485 142.995 32.264 142.949 32.391C142.921 32.5169 142.84 32.6548 142.707 32.8046L137.495 38.6608C137.336 38.8387 137.165 38.9374 136.979 38.9571C136.812 38.9757 136.644 38.91 136.475 38.7601C136.307 38.6101 136.217 38.4466 136.207 38.2697C136.214 38.0917 136.297 37.9138 136.455 37.7359L141.167 32.4414L141.518 32.7539L132.531 34.5954C132.382 34.6307 132.223 34.6399 132.053 34.6232C131.893 34.6147 131.728 34.5355 131.56 34.3856Z"
                fill="#818888"
              />
              <path
                d="M141.106 43.9224C140.51 43.228 140.148 42.4981 140.02 41.7328C139.892 40.9675 139.981 40.2143 140.286 39.4733C140.61 38.7336 141.133 38.0537 141.856 37.4335C142.407 36.9602 142.967 36.6119 143.535 36.3887C144.104 36.1655 144.666 36.0708 145.224 36.1045C145.791 36.1301 146.33 36.278 146.843 36.5483C147.364 36.8281 147.849 37.2296 148.297 37.7528C148.591 38.0953 148.845 38.4969 149.059 38.9576C149.272 39.4184 149.381 39.9111 149.385 40.4359C149.4 40.5881 149.373 40.7193 149.302 40.8294C149.231 40.9396 149.136 41.0212 149.017 41.0743C148.907 41.1192 148.79 41.1369 148.666 41.1274C148.552 41.1098 148.445 41.0528 148.346 40.9563C148.255 40.8693 148.202 40.7409 148.189 40.571C148.167 40.1604 148.083 39.7941 147.939 39.472C147.795 39.1499 147.621 38.8699 147.417 38.6321C147.099 38.2611 146.759 37.9907 146.399 37.8209C146.048 37.643 145.682 37.5528 145.3 37.5502C144.918 37.5477 144.52 37.6328 144.107 37.8056C143.702 37.988 143.285 38.2628 142.857 38.63C142.03 39.34 141.541 40.0981 141.39 40.9043C141.249 41.7024 141.489 42.4629 142.109 43.1858C142.313 43.4236 142.559 43.6335 142.847 43.8156C143.144 44.0071 143.497 44.1497 143.908 44.2433C144.074 44.2827 144.193 44.354 144.265 44.4573C144.337 44.5606 144.368 44.6741 144.359 44.7978C144.359 44.9133 144.319 45.0214 144.241 45.122C144.17 45.2322 144.075 45.3138 143.955 45.3669C143.845 45.4118 143.716 45.4152 143.568 45.3772C143.059 45.285 142.593 45.1071 142.169 44.8436C141.754 44.5719 141.4 44.2648 141.106 43.9224Z"
                fill="#818888"
              />
              <path
                d="M145.367 49.5324C145.235 49.3343 145.188 49.1397 145.226 48.9485C145.264 48.7572 145.387 48.592 145.596 48.4529L151.631 44.4236L150.107 42.1407C149.842 41.7446 149.882 41.4318 150.226 41.2021C150.383 41.0977 150.537 41.0698 150.69 41.1184C150.854 41.16 150.998 41.2746 151.123 41.4622L155.027 47.31C155.285 47.6957 155.247 47.9998 154.913 48.2225C154.746 48.3339 154.581 48.3688 154.418 48.3271C154.272 48.289 154.136 48.1761 154.011 47.9885L152.476 45.69L146.441 49.7194C146.233 49.8585 146.036 49.9143 145.852 49.8866C145.675 49.8693 145.513 49.7513 145.367 49.5324Z"
                fill="#818888"
              />
              <path
                d="M149.929 57.4552C149.537 56.6562 149.372 55.8786 149.434 55.1224C149.496 54.3662 149.762 53.6703 150.232 53.0349C150.719 52.4053 151.396 51.878 152.262 51.453C152.915 51.1329 153.544 50.936 154.15 50.8621C154.767 50.7828 155.347 50.8265 155.889 50.9932C156.432 51.1599 156.914 51.4326 157.338 51.8114C157.777 52.196 158.144 52.6864 158.436 53.2828C158.828 54.0818 158.993 54.8594 158.931 55.6156C158.869 56.3718 158.595 57.0648 158.108 57.6944C157.638 58.3298 156.97 58.86 156.103 59.285C155.451 59.6051 154.821 59.802 154.215 59.8759C153.609 59.9497 153.03 59.906 152.476 59.7448C151.933 59.5781 151.442 59.3025 151.002 58.918C150.579 58.5392 150.222 58.0516 149.929 57.4552ZM151.026 56.9171C151.275 57.4234 151.616 57.8072 152.052 58.0684C152.487 58.3296 152.99 58.4455 153.562 58.4163C154.14 58.3983 154.76 58.2265 155.424 57.9009C156.448 57.3986 157.117 56.7844 157.431 56.0581C157.751 55.3431 157.72 54.5974 157.339 53.8209C157.085 53.3033 156.741 52.9139 156.305 52.6527C155.887 52.3973 155.389 52.2785 154.811 52.2965C154.251 52.3203 153.627 52.5005 152.941 52.8371C151.928 53.3338 151.259 53.9481 150.934 54.6799C150.62 55.4061 150.651 56.1519 151.026 56.9171Z"
                fill="#818888"
              />
              <path
                d="M153 63.9662C152.924 63.7272 152.931 63.5212 153.021 63.3482C153.111 63.1751 153.275 63.0509 153.514 62.9753L160.72 60.6966C160.959 60.6211 161.165 60.6282 161.338 60.7181C161.511 60.808 161.636 60.9724 161.711 61.2114L162.816 64.7068C163.036 65.3999 163.125 65.9959 163.086 66.4947C163.059 66.9898 162.906 67.3997 162.627 67.7244C162.36 68.0453 161.976 68.2851 161.474 68.4438C160.925 68.6176 160.396 68.5678 159.889 68.2944C159.386 68.0329 159 67.6028 158.732 67.0041L158.965 66.9304C159.175 67.6788 159.149 68.3246 158.887 68.8675C158.629 69.4224 158.183 69.8 157.55 70.0003C156.809 70.2346 156.136 70.1449 155.532 69.7312C154.928 69.3175 154.468 68.6088 154.15 67.605L153 63.9662ZM154.184 64.2818L155.119 67.2395C155.304 67.825 155.571 68.2335 155.921 68.4648C156.286 68.7043 156.707 68.7485 157.185 68.5974C157.663 68.4462 157.976 68.1696 158.125 67.7676C158.278 67.3776 158.262 66.8898 158.077 66.3042L157.141 63.3466L154.184 64.2818ZM158.127 63.0348L159.012 65.8311C159.182 66.3689 159.439 66.7475 159.785 66.9669C160.134 67.1982 160.53 67.244 160.972 67.1042C161.414 66.9643 161.705 66.7013 161.846 66.315C161.991 65.9407 161.978 65.4846 161.808 64.9469L160.924 62.1506L158.127 63.0348Z"
                fill="#818888"
              />
              <path
                d="M160.443 77.8142C160.402 77.5036 160.462 77.2428 160.624 77.0318C160.799 76.8192 161.035 76.6933 161.333 76.654C161.631 76.6147 161.886 76.676 162.097 76.8378C162.32 76.998 162.452 77.2334 162.493 77.5441C162.534 77.8547 162.467 78.1101 162.291 78.3103C162.129 78.5212 161.899 78.6464 161.601 78.6856C161.302 78.7249 161.042 78.6645 160.818 78.5043C160.609 78.3549 160.484 78.1249 160.443 77.8142Z"
                fill="#818888"
              />
            </svg>